<svg width="24" height="24" viewBox="0 0 24 24" fill="none" xmlns="http://www.w3.org/2000/svg">
<g clip-path="url(#clip0_23713_77660)">
<path d="M12 24C18.65 24 24 18.65 24 12C24 5.34996 18.65 0 12 0C5.34996 0 0 5.34996 0 12C0 18.65 5.34996 24 12 24Z" fill="#00A6C4"/>
<g clip-path="url(#clip1_23713_77660)">
<path d="M8.7027 13.1113C9.16252 13.1113 9.61112 12.958 9.97373 12.6776L7.05784 9.76172C6.35504 10.6701 6.52326 11.9785 7.43168 12.6813C7.79803 12.958 8.24289 13.1113 8.7027 13.1113Z" fill="white"/>
<path d="M17.3759 11.0288C17.3759 10.569 17.2226 10.1204 16.9423 9.75781L14.0264 12.6737C14.9348 13.3765 16.2395 13.2083 16.9423 12.2999C17.2226 11.9373 17.3759 11.4887 17.3759 11.0288Z" fill="white"/>
<path d="M18.8449 7.85352L17.5551 9.14324C18.5944 10.3881 18.4299 12.2423 17.185 13.2816C16.0935 14.1937 14.5084 14.1937 13.4168 13.2816L12 14.6984L10.5869 13.2853C9.34206 14.3245 7.48785 14.1601 6.4486 12.9152C5.53645 11.8236 5.53645 10.2386 6.4486 9.14697L5.78692 8.48529L5.15888 7.85352C4.4 9.10211 4 10.5376 4 11.9993C4 16.418 7.58131 19.9993 12 19.9993C16.4187 19.9993 20 16.418 20 11.9993C20.0037 10.5376 19.6 9.10211 18.8449 7.85352Z" fill="white"/>
<path d="M17.7869 6.47797C14.7402 3.28171 9.67851 3.16208 6.48225 6.20881C6.38879 6.29853 6.29907 6.38825 6.21309 6.47797C6.01496 6.68732 5.82804 6.90414 5.65234 7.13218L12 13.4836L18.3477 7.13218C18.1757 6.90414 17.9851 6.68732 17.7869 6.47797ZM12 5.04619C13.8692 5.04619 15.6112 5.76769 16.9196 7.08358L12 12.0032L7.08038 7.08358C8.38879 5.76769 10.1308 5.04619 12 5.04619Z" fill="white"/>
</g>
</g>
<defs>
<clipPath id="clip0_23713_77660">
<rect width="24" height="24" fill="white"/>
</clipPath>
<clipPath id="clip1_23713_77660">
<rect width="16" height="16" fill="white" transform="translate(4 4)"/>
</clipPath>
</defs>
</svg>
