<svg xmlns="http://www.w3.org/2000/svg"  viewBox="0 0 16 17" fill="none">
  <g clip-path="url(#clip0_23713_77517)">
    <path d="M5.625 9.5H4.375C4.16875 9.5 4 9.33125 4 9.125V7.875C4 7.66875 4.16875 7.5 4.375 7.5H5.625C5.83125 7.5 6 7.66875 6 7.875V9.125C6 9.33125 5.83125 9.5 5.625 9.5ZM9 9.125V7.875C9 7.66875 8.83125 7.5 8.625 7.5H7.375C7.16875 7.5 7 7.66875 7 7.875V9.125C7 9.33125 7.16875 9.5 7.375 9.5H8.625C8.83125 9.5 9 9.33125 9 9.125ZM12 9.125V7.875C12 7.66875 11.8313 7.5 11.625 7.5H10.375C10.1687 7.5 10 7.66875 10 7.875V9.125C10 9.33125 10.1687 9.5 10.375 9.5H11.625C11.8313 9.5 12 9.33125 12 9.125ZM9 12.125V10.875C9 10.6687 8.83125 10.5 8.625 10.5H7.375C7.16875 10.5 7 10.6687 7 10.875V12.125C7 12.3313 7.16875 12.5 7.375 12.5H8.625C8.83125 12.5 9 12.3313 9 12.125ZM6 12.125V10.875C6 10.6687 5.83125 10.5 5.625 10.5H4.375C4.16875 10.5 4 10.6687 4 10.875V12.125C4 12.3313 4.16875 12.5 4.375 12.5H5.625C5.83125 12.5 6 12.3313 6 12.125ZM12 12.125V10.875C12 10.6687 11.8313 10.5 11.625 10.5H10.375C10.1687 10.5 10 10.6687 10 10.875V12.125C10 12.3313 10.1687 12.5 10.375 12.5H11.625C11.8313 12.5 12 12.3313 12 12.125ZM15 4V15C15 15.8281 14.3281 16.5 13.5 16.5H2.5C1.67188 16.5 1 15.8281 1 15V4C1 3.17188 1.67188 2.5 2.5 2.5H4V0.875C4 0.66875 4.16875 0.5 4.375 0.5H5.625C5.83125 0.5 6 0.66875 6 0.875V2.5H10V0.875C10 0.66875 10.1687 0.5 10.375 0.5H11.625C11.8313 0.5 12 0.66875 12 0.875V2.5H13.5C14.3281 2.5 15 3.17188 15 4ZM13.5 14.8125V5.5H2.5V14.8125C2.5 14.9156 2.58438 15 2.6875 15H13.3125C13.4156 15 13.5 14.9156 13.5 14.8125Z" fill="#B45FFF"/>
  </g>
  <defs>
    <clipPath id="clip0_23713_77517">
      <rect width="16" height="16" fill="white" transform="translate(0 0.5)"/>
    </clipPath>
  </defs>
</svg>