<svg width="43" height="48" viewBox="0 0 43 48" fill="none" xmlns="http://www.w3.org/2000/svg">
<g id="symbol">
<path id="Polygon" d="M20.2042 47.7782C20.717 48.0739 21.3487 48.0739 21.8615 47.7782L41.237 36.6058C41.7498 36.3102 42.0657 35.7638 42.0657 35.1724V12.8276C42.0657 12.2363 41.7498 11.6898 41.237 11.3942L21.8615 0.221752C21.3487 -0.0739174 20.717 -0.0739174 20.2042 0.221752L0.828629 11.3942C0.315872 11.6898 0 12.2363 0 12.8276V35.1724C0 35.7638 0.315872 36.3102 0.828629 36.6058L20.2042 47.7782ZM21.0328 46.3448L1.65726 35.1724V12.8276L21.0328 1.65517L40.4084 12.8276V35.1724L21.0328 46.3448Z" fill="#1F0174"/>
<path id="Combined Shape" fill-rule="evenodd" clip-rule="evenodd" d="M15.6377 13.7129L28.0577 14.2614L33.0861 25.2996L25.992 35.3878L13.5045 34.5977L8.38501 22.6379L15.6377 13.7129ZM23.669 32.5518L17.0905 34.2474L24.8268 34.7359L23.669 32.5518ZM30.7386 27.7501L24.98 31.9804L26.1243 34.1857L30.7386 27.7501ZM14.0398 25.8626L14.2285 33.3056L21.8402 31.3553L14.0398 25.8626ZM9.20293 23.4915L12.7924 31.8306L12.643 24.2098L9.20293 23.4915ZM26.4618 20.0176L25.0589 30.2461L31.7774 25.3367L26.4618 20.0176ZM24.6992 20.1584L15.7181 24.0279L23.3964 29.8823L24.6992 20.1584ZM14.5465 15.8675L9.42586 22.2439L12.8494 22.959L14.5465 15.8675ZM28.0148 15.9039L26.8963 18.1682L31.0595 22.3415L28.0148 15.9039ZM16.4821 15.1719L14.9744 21.5795L23.6594 18.2194L16.4821 15.1719ZM19.3105 14.5277L25.341 17.1289L26.6212 14.8204L19.3105 14.5277Z" fill="#9013FE"/>
<path id="Union" fill-rule="evenodd" clip-rule="evenodd" d="M21.0231 39.7461L21.0232 47.0001H21.2732L21.2731 39.7461H21.0231ZM20.9764 0.999756L20.9764 7.96486L21.2264 7.96486L21.2264 0.999756H20.9764ZM40.9369 35.6086L34.71 31.9613L34.8363 31.7456L41.0632 35.3928L40.9369 35.6086ZM7.16194 16.1104L0.935547 12.3575L1.0646 12.1434L7.29099 15.8962L7.16194 16.1104ZM41.0625 12.6082L34.8125 16.2151L34.6875 15.9986L40.9375 12.3917L41.0625 12.6082ZM7.31249 32.1461L1.31249 35.6082L1.18754 35.3917L7.18754 31.9296L7.31249 32.1461Z" fill="#1F0174"/>
</g>
</svg>
