<svg xmlns="http://www.w3.org/2000/svg" width="16" height="16" viewBox="0 0 16 16" fill="none">
  <g clip-path="url(#clip0_23363_127520)">
    <path d="M-0.29248 2.39286V3.78571C-0.29248 4.29933 0.119258 4.71429 0.628893 4.71429H1.08958H2.47164V2.39286C2.47164 1.62388 1.85259 1 1.08958 1C0.326567 1 -0.29248 1.62388 -0.29248 2.39286ZM2.93233 1C3.22026 1.38884 3.39301 1.87054 3.39301 2.39286V11.2143C3.39301 12.2386 4.21937 13.0714 5.23576 13.0714C6.25215 13.0714 7.07851 12.2386 7.07851 11.2143V11.0605C7.07851 10.1203 7.83576 9.35714 8.76865 9.35714H13.5281V3.78571C13.5281 2.24777 12.29 1 10.764 1H2.93233ZM13.0674 14C14.8497 14 16.2922 12.5462 16.2922 10.75C16.2922 10.4946 16.0849 10.2857 15.8316 10.2857H8.76865C8.34539 10.2857 7.99988 10.631 7.99988 11.0605V11.2143C7.99988 12.7522 6.76178 14 5.23576 14H10.3033H13.0674Z" fill="#65DC7F"/>
  </g>
  <defs>
    <clipPath id="clip0_23363_127520">
      <rect width="16" height="16" fill="white"/>
    </clipPath>
  </defs>
</svg>