<svg width="48" height="48" viewBox="0 0 48 48" fill="none" xmlns="http://www.w3.org/2000/svg">
<g id="Icons/symbol-poh">
<path id="Vector" d="M44.9538 26.715C45.1334 26.961 45.2865 27.2253 45.4104 27.5035C45.5394 27.725 45.5929 27.9823 45.563 28.2368C45.533 28.4912 45.4212 28.7291 45.2444 28.9146C44.9123 29.1013 44.5178 29.2466 44.1857 29.4334L43.3762 29.8276C43.2418 29.8862 43.1224 29.9744 43.0268 30.0855C42.9312 30.1966 42.8619 30.3278 42.824 30.4693C42.7861 30.6109 42.7806 30.7591 42.8079 30.9031C42.8352 31.0471 42.8946 31.183 42.9817 31.3009C43.1063 31.4877 43.2516 31.6329 43.3762 31.8197C43.5075 31.9928 43.5786 32.2042 43.5786 32.4215C43.5786 32.6387 43.5075 32.8501 43.3762 33.0232C43.1893 33.5005 42.7949 33.4382 42.4628 33.5005C42.1307 33.5627 42.4628 33.6872 42.4628 33.8325C42.6349 33.8909 42.7878 33.9952 42.9049 34.1342C43.022 34.2732 43.0988 34.4415 43.1271 34.621C43.1467 34.7974 43.1207 34.9758 43.0517 35.1393C42.9826 35.3028 42.8728 35.4459 42.7326 35.5548C42.4478 35.7573 42.1773 35.9791 41.9231 36.2188C41.7028 36.4271 41.5481 36.6951 41.478 36.99C41.408 37.2849 41.4256 37.5938 41.5287 37.8789C41.7784 38.5505 41.833 39.2791 41.6861 39.9804C41.5392 40.6818 41.1967 41.3272 40.6983 41.8423C40.4048 42.1576 40.042 42.4005 39.6386 42.5517C39.2351 42.703 38.802 42.7585 38.3734 42.7138C37.4601 42.6515 36.5882 42.5063 35.6541 42.3818C34.6018 42.1681 33.5312 42.0569 32.4574 42.0498C31.7202 42.0339 30.9958 42.2439 30.3815 42.6515C29.9801 42.9254 29.6636 43.3065 29.4682 43.7513C29.2863 44.1864 29.1473 44.6381 29.053 45.1001C28.9955 45.5749 28.8024 46.023 28.4969 46.391C28.1914 46.759 27.7863 47.0312 27.3301 47.1752C24.4809 47.8364 21.5541 48.1017 18.6324 47.9637C15.6579 48.1094 12.6782 47.8157 9.78946 47.0922C9.60675 47.0448 9.43646 46.9585 9.2903 46.8391C9.14413 46.7196 9.02556 46.57 8.94273 46.4005C8.85989 46.2309 8.81476 46.0454 8.81042 45.8568C8.80609 45.6682 8.84266 45.4808 8.91762 45.3076V45.0379C9.95541 42.054 9.9991 38.8145 9.04217 35.8038C8.33771 33.5385 7.50607 31.3146 6.55119 29.1428C5.63783 26.881 4.64144 24.6399 3.89415 22.3159C3.27689 20.3563 2.97559 18.3109 3.00154 16.2567C3.1085 13.5329 4.01049 10.9001 5.59631 8.68265C8.05246 5.33115 11.4585 2.79383 15.3734 1.39915C17.9811 0.400595 20.7608 -0.0719234 23.5521 0.00885569C26.1569 0.00936938 28.7317 0.564853 31.1048 1.63829C33.4779 2.71172 35.595 4.27845 37.3148 6.23407C38.8935 8.05657 39.9291 10.2852 40.3039 12.6668C40.6884 14.9075 40.7722 17.1894 40.553 19.4523C40.5003 20.5898 40.8867 21.7041 41.6325 22.5649C42.7534 23.9137 43.8743 25.304 44.9538 26.715Z" fill="url(#paint0_linear_23661_64359)"/>
</g>
<defs>
<linearGradient id="paint0_linear_23661_64359" x1="3" y1="24" x2="45.5711" y2="24" gradientUnits="userSpaceOnUse">
<stop stop-color="#FF9966"/>
<stop offset="1" stop-color="#FF8CA9"/>
</linearGradient>
</defs>
</svg>
