<svg xmlns="http://www.w3.org/2000/svg" width="32" height="33" viewBox="0 0 32 33" fill="none">
  <g clip-path="url(#clip0_23363_132258)">
    <path d="M31.5594 28.166L25.3288 21.9354C25.0476 21.6542 24.6663 21.4979 24.2664 21.4979H23.2477C24.9726 19.2919 25.9975 16.5172 25.9975 13.4987C25.9975 6.31818 20.1793 0.5 12.9987 0.5C5.81818 0.5 0 6.31818 0 13.4987C0 20.6793 5.81818 26.4975 12.9987 26.4975C16.0172 26.4975 18.7919 25.4726 20.998 23.7477V24.7664C20.998 25.1663 21.1542 25.5476 21.4354 25.8288L27.6661 32.0594C28.2535 32.6469 29.2034 32.6469 29.7846 32.0594L31.5532 30.2908C32.1406 29.7034 32.1406 28.7535 31.5594 28.166ZM12.9987 21.4979C8.58041 21.4979 4.99951 17.9233 4.99951 13.4987C4.99951 9.08041 8.57416 5.49951 12.9987 5.49951C17.417 5.49951 20.998 9.07416 20.998 13.4987C20.998 17.917 17.4233 21.4979 12.9987 21.4979Z" fill="#A5DBFF"/>
  </g>
  <defs>
    <clipPath id="clip0_23363_132258">
      <rect width="32" height="32" fill="white" transform="translate(0 0.5)"/>
    </clipPath>
  </defs>
</svg>