<svg width="190" height="48" viewBox="0 0 190 48" fill="none" xmlns="http://www.w3.org/2000/svg">
<g id="Icons/logo-governor-white">
<path id="governor" fill-rule="evenodd" clip-rule="evenodd" d="M20.2043 47.7778C20.4564 47.9234 20.7423 48 21.0334 48C21.3245 48 21.6105 47.9234 21.8626 47.7778L41.2383 36.6041C41.4903 36.4592 41.6997 36.2505 41.8454 35.9989C41.991 35.7473 42.0678 35.4617 42.0679 35.171V12.8279C42.068 12.537 41.9913 12.2512 41.8456 11.9994C41.7 11.7476 41.4905 11.5386 41.2383 11.3936L21.8626 0.222168C21.6105 0.0766231 21.3245 0 21.0334 0C20.7423 0 20.4564 0.0766231 20.2043 0.222168L0.828598 11.3948C0.576685 11.5397 0.367444 11.7485 0.221969 12.0001C0.0764938 12.2518 -6.89419e-05 12.5373 4.65814e-08 12.8279V35.1721C-2.53113e-05 35.4628 0.0765911 35.7483 0.222124 35.9999C0.367656 36.2515 0.576958 36.4603 0.828924 36.6052L20.2043 47.7778ZM21.0329 46.3437L1.6572 35.1721V12.8279L21.0329 1.65417L40.4086 12.8279V35.1721L21.0329 46.3437ZM37.4055 13.7857L21.7052 4.73465C21.5004 4.61706 21.2684 4.55518 21.0323 4.55518C20.7962 4.55518 20.5642 4.61706 20.3594 4.73465L4.65908 13.7857C4.45516 13.9032 4.28577 14.0723 4.16793 14.276C4.05009 14.4797 3.98797 14.7108 3.98779 14.9462V33.0482C3.98789 33.2837 4.04997 33.5151 4.16781 33.719C4.28564 33.9229 4.45508 34.0921 4.65908 34.2098L20.3594 43.2608C20.5638 43.3794 20.796 43.4418 21.0323 43.4418C21.2686 43.4418 21.5008 43.3794 21.7052 43.2608L37.4055 34.2098C37.6095 34.0921 37.779 33.9229 37.8968 33.719C38.0146 33.5151 38.0767 33.2837 38.0768 33.0482V14.9462C38.0766 14.7108 38.0145 14.4797 37.8967 14.276C37.7788 14.0723 37.6094 13.9032 37.4055 13.7857ZM37.2751 32.6291C37.2749 32.8529 37.2157 33.0727 37.1035 33.2664C36.9914 33.4601 36.8302 33.6208 36.6362 33.7325L21.6729 42.3622C21.4781 42.4729 21.2579 42.5311 21.0339 42.5311C20.8099 42.5311 20.5897 42.4729 20.395 42.3622L5.43273 33.7325C5.23813 33.6206 5.07648 33.4594 4.9641 33.2651C4.85173 33.0708 4.7926 32.8503 4.79269 32.6259V15.3718C4.79315 15.1474 4.8525 14.9271 4.96482 14.7329C5.07715 14.5387 5.23849 14.3774 5.43273 14.2652L20.4003 5.63975C20.5944 5.52696 20.8148 5.46754 21.0393 5.46754C21.2638 5.46754 21.4842 5.52696 21.6783 5.63975L36.6416 14.2663C36.8347 14.379 36.9948 14.5404 37.106 14.7344C37.2171 14.9284 37.2755 15.1482 37.2751 15.3718V32.6291ZM20.6553 12.3458L18.3916 14.6095C18.3491 14.652 18.3491 14.7209 18.3916 14.7634L23.9665 20.3383C24.009 20.3808 24.0779 20.3808 24.1204 20.3383L26.3841 18.0746C26.4266 18.0321 26.4266 17.9632 26.3841 17.9207L20.8092 12.3458C20.7667 12.3033 20.6978 12.3033 20.6553 12.3458ZM18.4489 16.1264L13.1056 21.4697C12.9104 21.6649 12.9104 21.9815 13.1056 22.1768L16.5555 25.6266C16.7508 25.8219 17.0673 25.8219 17.2626 25.6266L22.6058 20.2834C22.8011 20.0881 22.8011 19.7716 22.6058 19.5763L19.156 16.1264C18.9607 15.9312 18.6441 15.9312 18.4489 16.1264ZM9.29506 23.708L11.5587 21.4443C11.6012 21.4018 11.6701 21.4018 11.7126 21.4443L17.2875 27.0192C17.33 27.0617 17.33 27.1306 17.2875 27.1731L15.0239 29.4368C14.9814 29.4793 14.9125 29.4793 14.87 29.4368L9.29506 23.8619C9.25256 23.8194 9.25256 23.7505 9.29506 23.708ZM28.505 33.2418L19.726 23.4812L20.5722 22.6003L29.9575 31.7312C30.1875 31.9547 30.0467 32.4851 29.6365 32.907C29.2299 33.3308 28.7199 33.481 28.505 33.2418ZM181.142 23.53H183.782C185.732 23.53 187.022 22.42 187.022 20.65C187.022 19.24 186.182 18.19 184.382 18.19H181.142V23.53ZM179.132 32.02V16.39H184.442C187.052 16.39 189.122 17.62 189.122 20.65C189.122 22.57 187.832 24.46 185.942 25.03L189.782 31.36L188.042 32.41L184.052 25.33H181.142V32.02H179.132ZM171.224 24.22C171.224 17.92 168.164 16.12 165.674 16.12C163.094 16.12 160.124 17.98 160.124 24.22C160.124 30.49 163.154 32.29 165.674 32.29C171.134 32.29 171.224 25.48 171.224 24.22ZM162.224 24.22C162.224 21.91 162.644 18.01 165.674 18.01C168.704 18.01 169.124 21.91 169.124 24.22C169.124 26.5 168.704 30.4 165.674 30.4C162.644 30.4 162.224 26.5 162.224 24.22ZM142.465 32.02V16.39H144.955L151.015 29.56L151.075 29.5L150.895 25.45V16.39H152.905V32.02H150.415L144.355 18.85L144.295 18.91L144.475 22.99V32.02H142.465ZM129.817 23.53H127.177V18.19H130.417C132.217 18.19 133.057 19.24 133.057 20.65C133.057 22.42 131.767 23.53 129.817 23.53ZM125.167 16.39V32.02H127.177V25.33H130.087L134.077 32.41L135.817 31.36L131.977 25.03C133.867 24.46 135.157 22.57 135.157 20.65C135.157 17.62 133.087 16.39 130.477 16.39H125.167ZM107.419 32.02V16.39H117.169V18.19H109.429V22.87H115.819V24.67H109.429V30.22H117.169V32.02H107.419ZM97.9805 16L93.7205 27.46L89.4605 16L87.5405 16.72L93.5405 32.41H93.9005L99.9005 16.72L97.9805 16ZM75.7322 16.12C78.2222 16.12 81.2822 17.92 81.2822 24.22C81.2822 25.48 81.1922 32.29 75.7322 32.29C73.2122 32.29 70.1822 30.49 70.1822 24.22C70.1822 17.98 73.1522 16.12 75.7322 16.12ZM75.7322 18.01C72.7022 18.01 72.2822 21.91 72.2822 24.22C72.2822 26.5 72.7022 30.4 75.7322 30.4C78.7622 30.4 79.1822 26.5 79.1822 24.22C79.1822 21.91 78.7622 18.01 75.7322 18.01ZM63.024 30.58V23.68H57.264V25.48H61.014V29.59C60.144 30.13 59.124 30.4 58.104 30.4C54.954 30.4 54.414 26.68 54.414 24.25C54.414 21.88 54.954 18.01 58.044 18.01C59.574 18.01 60.714 18.97 61.464 20.23L63.174 19.12C62.094 17.35 60.264 16.12 58.164 16.12C53.694 16.12 52.314 20.41 52.314 24.19C52.314 28.03 53.634 32.29 58.224 32.29C59.814 32.29 61.734 31.6 63.024 30.58Z" fill="white"/>
</g>
</svg>
