<svg xmlns="http://www.w3.org/2000/svg" width="16" height="16" viewBox="0 0 16 16" fill="none">
  <path d="M0.571429 3.29102H15.4286C15.7442 3.29102 16 3.02986 16 2.70768V1.24935C16 0.927167 15.7442 0.666016 15.4286 0.666016H0.571429C0.255821 0.666016 0 0.927167 0 1.24935V2.70768C0 3.02986 0.255821 3.29102 0.571429 3.29102ZM0.571429 9.12435H15.4286C15.7442 9.12435 16 8.8632 16 8.54102V7.08268C16 6.7605 15.7442 6.49935 15.4286 6.49935H0.571429C0.255821 6.49935 0 6.7605 0 7.08268V8.54102C0 8.8632 0.255821 9.12435 0.571429 9.12435ZM0.571429 14.9577H15.4286C15.7442 14.9577 16 14.6965 16 14.3743V12.916C16 12.5938 15.7442 12.3327 15.4286 12.3327H0.571429C0.255821 12.3327 0 12.5938 0 12.916V14.3743C0 14.6965 0.255821 14.9577 0.571429 14.9577Z" fill="white"/>
</svg>