<svg viewBox="0 0 1440 207" fill="none" xmlns="http://www.w3.org/2000/svg">
<path d="M0 0H1440V57L720 207L0 57V0Z" fill="#2A1260"/>
<path fill-rule="evenodd" clip-rule="evenodd" d="M86 54C85.8755 54 85.7531 53.9681 85.6452 53.9074L77.3549 49.2522C77.2471 49.1918 77.1576 49.1048 77.0953 49C77.033 48.8951 77.0002 48.7762 77.0002 48.655V39.345C77.0002 39.2239 77.033 39.1049 77.0952 39.0001C77.1575 38.8952 77.247 38.8082 77.3548 38.7478L85.6452 34.0926C85.7531 34.0319 85.8755 34 86 34C86.1246 34 86.2469 34.0319 86.3548 34.0926L94.6452 38.7473C94.7532 38.8078 94.8428 38.8948 94.9051 38.9997C94.9675 39.1047 95.0003 39.2237 95.0002 39.345V48.6546C95.0002 48.7757 94.9673 48.8947 94.905 48.9995C94.8427 49.1044 94.7531 49.1913 94.6452 49.2517L86.3548 53.9074C86.2469 53.9681 86.1246 54 86 54ZM77.7093 48.655L85.9998 53.3099L94.2902 48.655V39.345L85.9998 34.6892L77.7093 39.345V48.655ZM86.2875 35.9728L93.0053 39.744C93.0925 39.793 93.165 39.8634 93.2154 39.9483C93.2659 40.0332 93.2924 40.1295 93.2925 40.2276V47.7701C93.2925 47.8682 93.2659 47.9646 93.2155 48.0496C93.1651 48.1345 93.0926 48.2051 93.0053 48.2541L86.2875 52.0253C86.2 52.0747 86.1006 52.1007 85.9995 52.1007C85.8984 52.1007 85.7991 52.0747 85.7116 52.0253L78.9938 48.2541C78.9065 48.2051 78.834 48.1345 78.7836 48.0496C78.7331 47.9646 78.7066 47.8682 78.7065 47.7701V40.2276C78.7066 40.1295 78.7332 40.0332 78.7836 39.9483C78.834 39.8634 78.9065 39.793 78.9938 39.744L85.7116 35.9728C85.7992 35.9238 85.8985 35.898 85.9995 35.898C86.1006 35.898 86.1998 35.9238 86.2875 35.9728ZM92.8761 47.861C92.9241 47.7803 92.9494 47.6887 92.9495 47.5955V40.4049C92.9497 40.3117 92.9247 40.2202 92.8771 40.1393C92.8296 40.0585 92.761 39.9912 92.6784 39.9443L86.2759 36.3499C86.1929 36.3029 86.0986 36.2781 86.0025 36.2781C85.9065 36.2781 85.8122 36.3029 85.7291 36.3499L79.3248 39.9438C79.2417 39.9906 79.1727 40.0578 79.1246 40.1387C79.0765 40.2196 79.0511 40.3114 79.0509 40.4049V47.5941C79.0509 47.6876 79.0762 47.7795 79.1243 47.8605C79.1724 47.9414 79.2415 48.0086 79.3248 48.0552L85.7268 51.6509C85.8102 51.697 85.9044 51.7213 86.0002 51.7213C86.0961 51.7213 86.1903 51.697 86.2736 51.6509L92.6761 48.0552C92.7591 48.0087 92.8281 47.9417 92.8761 47.861ZM178.645 53.9074C178.753 53.9681 178.875 54 179 54C179.125 54 179.247 53.9681 179.355 53.9074L187.645 49.2517C187.753 49.1913 187.843 49.1044 187.905 48.9995C187.967 48.8947 188 48.7757 188 48.6546V39.345C188 39.2237 187.967 39.1047 187.905 38.9997C187.843 38.8948 187.753 38.8078 187.645 38.7473L179.355 34.0926C179.247 34.0319 179.125 34 179 34C178.875 34 178.753 34.0319 178.645 34.0926L170.355 38.7478C170.247 38.8082 170.157 38.8952 170.095 39.0001C170.033 39.1049 170 39.2239 170 39.345V48.655C170 48.7762 170.033 48.8951 170.095 49C170.158 49.1048 170.247 49.1918 170.355 49.2522L178.645 53.9074ZM179 53.3099L170.709 48.655V39.345L179 34.6892L187.29 39.345V48.655L179 53.3099ZM186.005 39.744L179.287 35.9728C179.2 35.9238 179.101 35.898 179 35.898C178.898 35.898 178.799 35.9238 178.712 35.9728L171.994 39.744C171.907 39.793 171.834 39.8634 171.784 39.9483C171.733 40.0332 171.707 40.1295 171.707 40.2276V47.7701C171.707 47.8682 171.733 47.9646 171.784 48.0496C171.834 48.1345 171.906 48.2051 171.994 48.2541L178.712 52.0253C178.799 52.0747 178.898 52.1007 179 52.1007C179.101 52.1007 179.2 52.0747 179.287 52.0253L186.005 48.2541C186.093 48.2051 186.165 48.1345 186.215 48.0496C186.266 47.9646 186.292 47.8682 186.293 47.7701V40.2276C186.292 40.1295 186.266 40.0332 186.215 39.9483C186.165 39.8634 186.093 39.793 186.005 39.744ZM185.95 47.5955C185.949 47.6887 185.924 47.7803 185.876 47.861C185.828 47.9417 185.759 48.0087 185.676 48.0552L179.274 51.6509C179.19 51.697 179.096 51.7213 179 51.7213C178.904 51.7213 178.81 51.697 178.727 51.6509L172.325 48.0552C172.242 48.0086 172.172 47.9414 172.124 47.8605C172.076 47.7795 172.051 47.6876 172.051 47.5941V40.4049C172.051 40.3114 172.077 40.2196 172.125 40.1387C172.173 40.0578 172.242 39.9906 172.325 39.9438L178.729 36.3499C178.812 36.3029 178.906 36.2781 179.003 36.2781C179.099 36.2781 179.193 36.3029 179.276 36.3499L185.678 39.9443C185.761 39.9912 185.83 40.0585 185.877 40.1393C185.925 40.2202 185.95 40.3117 185.95 40.4049V47.5955ZM277 54C276.875 54 276.753 53.9681 276.645 53.9074L268.355 49.2522C268.247 49.1918 268.158 49.1048 268.095 49C268.033 48.8951 268 48.7762 268 48.655V39.345C268 39.2239 268.033 39.1049 268.095 39.0001C268.157 38.8952 268.247 38.8082 268.355 38.7478L276.645 34.0926C276.753 34.0319 276.875 34 277 34C277.125 34 277.247 34.0319 277.355 34.0926L285.645 38.7473C285.753 38.8078 285.843 38.8948 285.905 38.9997C285.967 39.1047 286 39.2237 286 39.345V48.6546C286 48.7757 285.967 48.8947 285.905 48.9995C285.843 49.1044 285.753 49.1913 285.645 49.2517L277.355 53.9074C277.247 53.9681 277.125 54 277 54ZM268.709 48.655L277 53.3099L285.29 48.655V39.345L277 34.6892L268.709 39.345V48.655ZM277.287 35.9728L284.005 39.744C284.093 39.793 284.165 39.8634 284.215 39.9483C284.266 40.0332 284.292 40.1295 284.293 40.2276V47.7701C284.292 47.8682 284.266 47.9646 284.215 48.0496C284.165 48.1345 284.093 48.2051 284.005 48.2541L277.287 52.0253C277.2 52.0747 277.101 52.1007 277 52.1007C276.898 52.1007 276.799 52.0747 276.712 52.0253L269.994 48.2541C269.906 48.2051 269.834 48.1345 269.784 48.0496C269.733 47.9646 269.707 47.8682 269.707 47.7701V40.2276C269.707 40.1295 269.733 40.0332 269.784 39.9483C269.834 39.8634 269.907 39.793 269.994 39.744L276.712 35.9728C276.799 35.9238 276.898 35.898 277 35.898C277.101 35.898 277.2 35.9238 277.287 35.9728ZM283.876 47.861C283.924 47.7803 283.949 47.6887 283.95 47.5955V40.4049C283.95 40.3117 283.925 40.2202 283.877 40.1393C283.83 40.0585 283.761 39.9912 283.678 39.9443L277.276 36.3499C277.193 36.3029 277.099 36.2781 277.003 36.2781C276.906 36.2781 276.812 36.3029 276.729 36.3499L270.325 39.9438C270.242 39.9906 270.173 40.0578 270.125 40.1387C270.077 40.2196 270.051 40.3114 270.051 40.4049V47.5941C270.051 47.6876 270.076 47.7795 270.124 47.8605C270.172 47.9414 270.242 48.0086 270.325 48.0552L276.727 51.6509C276.81 51.697 276.904 51.7213 277 51.7213C277.096 51.7213 277.19 51.697 277.274 51.6509L283.676 48.0552C283.759 48.0087 283.828 47.9417 283.876 47.861ZM376.645 53.9074C376.753 53.9681 376.875 54 377 54C377.125 54 377.247 53.9681 377.355 53.9074L385.645 49.2517C385.753 49.1913 385.843 49.1044 385.905 48.9995C385.967 48.8947 386 48.7757 386 48.6546V39.345C386 39.2237 385.967 39.1047 385.905 38.9997C385.843 38.8948 385.753 38.8078 385.645 38.7473L377.355 34.0926C377.247 34.0319 377.125 34 377 34C376.875 34 376.753 34.0319 376.645 34.0926L368.355 38.7478C368.247 38.8082 368.157 38.8952 368.095 39.0001C368.033 39.1049 368 39.2239 368 39.345V48.655C368 48.7762 368.033 48.8951 368.095 49C368.158 49.1048 368.247 49.1918 368.355 49.2522L376.645 53.9074ZM377 53.3099L368.709 48.655V39.345L377 34.6892L385.29 39.345V48.655L377 53.3099ZM384.005 39.744L377.287 35.9728C377.2 35.9238 377.101 35.898 377 35.898C376.898 35.898 376.799 35.9238 376.712 35.9728L369.994 39.744C369.907 39.793 369.834 39.8634 369.784 39.9483C369.733 40.0332 369.707 40.1295 369.707 40.2276V47.7701C369.707 47.8682 369.733 47.9646 369.784 48.0496C369.834 48.1345 369.906 48.2051 369.994 48.2541L376.712 52.0253C376.799 52.0747 376.898 52.1007 377 52.1007C377.101 52.1007 377.2 52.0747 377.287 52.0253L384.005 48.2541C384.093 48.2051 384.165 48.1345 384.215 48.0496C384.266 47.9646 384.292 47.8682 384.293 47.7701V40.2276C384.292 40.1295 384.266 40.0332 384.215 39.9483C384.165 39.8634 384.093 39.793 384.005 39.744ZM383.949 47.5955C383.949 47.6887 383.924 47.7803 383.876 47.861C383.828 47.9417 383.759 48.0087 383.676 48.0552L377.274 51.6509C377.19 51.697 377.096 51.7213 377 51.7213C376.904 51.7213 376.81 51.697 376.727 51.6509L370.325 48.0552C370.242 48.0086 370.172 47.9414 370.124 47.8605C370.076 47.7795 370.051 47.6876 370.051 47.5941V40.4049C370.051 40.3114 370.077 40.2196 370.125 40.1387C370.173 40.0578 370.242 39.9906 370.325 39.9438L376.729 36.3499C376.812 36.3029 376.906 36.2781 377.003 36.2781C377.099 36.2781 377.193 36.3029 377.276 36.3499L383.678 39.9443C383.761 39.9912 383.83 40.0585 383.877 40.1393C383.925 40.2202 383.95 40.3117 383.949 40.4049V47.5955ZM467.645 53.9074C467.753 53.9681 467.875 54 468 54C468.125 54 468.247 53.9681 468.355 53.9074L476.645 49.2517C476.753 49.1913 476.843 49.1044 476.905 48.9995C476.967 48.8947 477 48.7757 477 48.6546V39.345C477 39.2237 476.967 39.1047 476.905 38.9997C476.843 38.8948 476.753 38.8078 476.645 38.7473L468.355 34.0926C468.247 34.0319 468.125 34 468 34C467.875 34 467.753 34.0319 467.645 34.0926L459.355 38.7478C459.247 38.8082 459.157 38.8952 459.095 39.0001C459.033 39.1049 459 39.2239 459 39.345V48.655C459 48.7762 459.033 48.8951 459.095 49C459.158 49.1048 459.247 49.1918 459.355 49.2522L467.645 53.9074ZM468 53.3099L459.709 48.655V39.345L468 34.6892L476.29 39.345V48.655L468 53.3099ZM475.005 39.744L468.287 35.9728C468.2 35.9238 468.101 35.898 468 35.898C467.898 35.898 467.799 35.9238 467.712 35.9728L460.994 39.744C460.907 39.793 460.834 39.8634 460.784 39.9483C460.733 40.0332 460.707 40.1295 460.707 40.2276V47.7701C460.707 47.8682 460.733 47.9646 460.784 48.0496C460.834 48.1345 460.906 48.2051 460.994 48.2541L467.712 52.0253C467.799 52.0747 467.898 52.1007 468 52.1007C468.101 52.1007 468.2 52.0747 468.287 52.0253L475.005 48.2541C475.093 48.2051 475.165 48.1345 475.215 48.0496C475.266 47.9646 475.292 47.8682 475.293 47.7701V40.2276C475.292 40.1295 475.266 40.0332 475.215 39.9483C475.165 39.8634 475.093 39.793 475.005 39.744ZM474.949 47.5955C474.949 47.6887 474.924 47.7803 474.876 47.861C474.828 47.9417 474.759 48.0087 474.676 48.0552L468.274 51.6509C468.19 51.697 468.096 51.7213 468 51.7213C467.904 51.7213 467.81 51.697 467.727 51.6509L461.325 48.0552C461.242 48.0086 461.172 47.9414 461.124 47.8605C461.076 47.7795 461.051 47.6876 461.051 47.5941V40.4049C461.051 40.3114 461.077 40.2196 461.125 40.1387C461.173 40.0578 461.242 39.9906 461.325 39.9438L467.729 36.3499C467.812 36.3029 467.906 36.2781 468.003 36.2781C468.099 36.2781 468.193 36.3029 468.276 36.3499L474.678 39.9443C474.761 39.9912 474.83 40.0585 474.877 40.1393C474.925 40.2202 474.95 40.3117 474.949 40.4049V47.5955Z" fill="#9013FE" fill-opacity="0.6"/>
<path fill-rule="evenodd" clip-rule="evenodd" d="M132.5 83C132.424 83 132.349 82.9808 132.283 82.9445L127.217 80.1513C127.151 80.1151 127.096 80.0629 127.058 80C127.02 79.9371 127 79.8657 127 79.793V74.207C127 74.1343 127.02 74.0629 127.058 74C127.096 73.9371 127.151 73.8849 127.217 73.8487L132.283 71.0555C132.349 71.0192 132.424 71 132.5 71C132.576 71 132.651 71.0192 132.717 71.0555L137.783 73.8484C137.849 73.8847 137.904 73.9369 137.942 73.9998C137.98 74.0628 138 74.1342 138 74.207V79.7928C138 79.8654 137.98 79.9368 137.942 79.9997C137.904 80.0626 137.849 80.1148 137.783 80.151L132.717 82.9445C132.651 82.9808 132.576 83 132.5 83ZM127.433 79.793L132.5 82.5859L137.566 79.793V74.207L132.5 71.4135L127.433 74.207V79.793ZM132.676 72.1837L136.781 74.4464C136.834 74.4758 136.878 74.5181 136.909 74.569C136.94 74.6199 136.956 74.6777 136.956 74.7365V79.2621C136.956 79.3209 136.94 79.3788 136.909 79.4297C136.879 79.4807 136.834 79.523 136.781 79.5524L132.676 81.8152C132.622 81.8448 132.561 81.8604 132.5 81.8604C132.438 81.8604 132.377 81.8448 132.324 81.8152L128.218 79.5524C128.165 79.523 128.121 79.4807 128.09 79.4297C128.059 79.3788 128.043 79.3209 128.043 79.2621V74.7365C128.043 74.6777 128.059 74.6199 128.09 74.569C128.121 74.5181 128.165 74.4758 128.218 74.4464L132.324 72.1837C132.377 72.1543 132.438 72.1388 132.5 72.1388C132.561 72.1388 132.622 72.1543 132.676 72.1837ZM136.702 79.3166C136.731 79.2682 136.747 79.2132 136.747 79.1573V74.8429C136.747 74.787 136.732 74.7321 136.703 74.6836C136.673 74.6351 136.632 74.5947 136.581 74.5666L132.668 72.4099C132.618 72.3817 132.56 72.3669 132.501 72.3669C132.443 72.3669 132.385 72.3817 132.334 72.4099L128.421 74.5663C128.37 74.5944 128.328 74.6347 128.298 74.6832C128.269 74.7318 128.253 74.7869 128.253 74.8429V79.1565C128.253 79.2126 128.269 79.2677 128.298 79.3163C128.327 79.3648 128.37 79.4052 128.421 79.4331L132.333 81.5905C132.384 81.6182 132.441 81.6328 132.5 81.6328C132.559 81.6328 132.616 81.6182 132.667 81.5905L136.58 79.4331C136.63 79.4052 136.673 79.365 136.702 79.3166ZM225.283 82.9445C225.349 82.9808 225.424 83 225.5 83C225.576 83 225.651 82.9808 225.717 82.9445L230.783 80.151C230.849 80.1148 230.904 80.0626 230.942 79.9997C230.98 79.9368 231 79.8654 231 79.7928V74.207C231 74.1342 230.98 74.0628 230.942 73.9998C230.904 73.9369 230.849 73.8847 230.783 73.8484L225.717 71.0555C225.651 71.0192 225.576 71 225.5 71C225.424 71 225.349 71.0192 225.283 71.0555L220.217 73.8487C220.151 73.8849 220.096 73.9371 220.058 74C220.02 74.0629 220 74.1343 220 74.207V79.793C220 79.8657 220.02 79.9371 220.058 80C220.096 80.0629 220.151 80.1151 220.217 80.1513L225.283 82.9445ZM225.5 82.5859L220.433 79.793V74.207L225.5 71.4135L230.566 74.207V79.793L225.5 82.5859ZM229.781 74.4464L225.676 72.1837C225.622 72.1543 225.561 72.1388 225.5 72.1388C225.438 72.1388 225.377 72.1543 225.324 72.1837L221.218 74.4464C221.165 74.4758 221.121 74.5181 221.09 74.569C221.059 74.6199 221.043 74.6777 221.043 74.7365V79.2621C221.043 79.3209 221.059 79.3788 221.09 79.4297C221.121 79.4807 221.165 79.523 221.218 79.5524L225.324 81.8152C225.377 81.8448 225.438 81.8604 225.5 81.8604C225.561 81.8604 225.622 81.8448 225.676 81.8152L229.781 79.5524C229.834 79.523 229.879 79.4807 229.909 79.4297C229.94 79.3788 229.956 79.3209 229.956 79.2621V74.7365C229.956 74.6777 229.94 74.6199 229.909 74.569C229.878 74.5181 229.834 74.4758 229.781 74.4464ZM229.747 79.1573C229.747 79.2132 229.731 79.2682 229.702 79.3166C229.673 79.365 229.63 79.4052 229.58 79.4331L225.667 81.5905C225.616 81.6182 225.559 81.6328 225.5 81.6328C225.441 81.6328 225.384 81.6182 225.333 81.5905L221.421 79.4331C221.37 79.4052 221.327 79.3648 221.298 79.3163C221.269 79.2677 221.253 79.2126 221.253 79.1565V74.8429C221.253 74.7869 221.269 74.7318 221.298 74.6832C221.328 74.6347 221.37 74.5944 221.421 74.5663L225.334 72.4099C225.385 72.3817 225.443 72.3669 225.501 72.3669C225.56 72.3669 225.618 72.3817 225.668 72.4099L229.581 74.5666C229.632 74.5947 229.673 74.6351 229.703 74.6836C229.732 74.7321 229.747 74.787 229.747 74.8429V79.1573ZM323.5 83C323.424 83 323.349 82.9808 323.283 82.9445L318.217 80.1513C318.151 80.1151 318.096 80.0629 318.058 80C318.02 79.9371 318 79.8657 318 79.793V74.207C318 74.1343 318.02 74.0629 318.058 74C318.096 73.9371 318.151 73.8849 318.217 73.8487L323.283 71.0555C323.349 71.0192 323.424 71 323.5 71C323.576 71 323.651 71.0192 323.717 71.0555L328.783 73.8484C328.849 73.8847 328.904 73.9369 328.942 73.9998C328.98 74.0628 329 74.1342 329 74.207V79.7928C329 79.8654 328.98 79.9368 328.942 79.9997C328.904 80.0626 328.849 80.1148 328.783 80.151L323.717 82.9445C323.651 82.9808 323.576 83 323.5 83ZM318.433 79.793L323.5 82.5859L328.566 79.793V74.207L323.5 71.4135L318.433 74.207V79.793ZM323.676 72.1837L327.781 74.4464C327.834 74.4758 327.878 74.5181 327.909 74.569C327.94 74.6199 327.956 74.6777 327.956 74.7365V79.2621C327.956 79.3209 327.94 79.3788 327.909 79.4297C327.879 79.4807 327.834 79.523 327.781 79.5524L323.676 81.8152C323.622 81.8448 323.561 81.8604 323.5 81.8604C323.438 81.8604 323.377 81.8448 323.324 81.8152L319.218 79.5524C319.165 79.523 319.121 79.4807 319.09 79.4297C319.059 79.3788 319.043 79.3209 319.043 79.2621V74.7365C319.043 74.6777 319.059 74.6199 319.09 74.569C319.121 74.5181 319.165 74.4758 319.218 74.4464L323.324 72.1837C323.377 72.1543 323.438 72.1388 323.5 72.1388C323.561 72.1388 323.622 72.1543 323.676 72.1837ZM327.702 79.3166C327.731 79.2682 327.747 79.2132 327.747 79.1573V74.8429C327.747 74.787 327.732 74.7321 327.703 74.6836C327.673 74.6351 327.632 74.5947 327.581 74.5666L323.668 72.4099C323.618 72.3817 323.56 72.3669 323.501 72.3669C323.443 72.3669 323.385 72.3817 323.334 72.4099L319.421 74.5663C319.37 74.5944 319.328 74.6347 319.298 74.6832C319.269 74.7318 319.253 74.7869 319.253 74.8429V79.1565C319.253 79.2126 319.269 79.2677 319.298 79.3163C319.327 79.3648 319.37 79.4052 319.421 79.4331L323.333 81.5905C323.384 81.6182 323.441 81.6328 323.5 81.6328C323.559 81.6328 323.616 81.6182 323.667 81.5905L327.58 79.4331C327.63 79.4052 327.673 79.365 327.702 79.3166ZM423.283 82.9445C423.349 82.9808 423.424 83 423.5 83C423.576 83 423.651 82.9808 423.717 82.9445L428.783 80.151C428.849 80.1148 428.904 80.0626 428.942 79.9997C428.98 79.9368 429 79.8654 429 79.7928V74.207C429 74.1342 428.98 74.0628 428.942 73.9998C428.904 73.9369 428.849 73.8847 428.783 73.8484L423.717 71.0555C423.651 71.0192 423.576 71 423.5 71C423.424 71 423.349 71.0192 423.283 71.0555L418.217 73.8487C418.151 73.8849 418.096 73.9371 418.058 74C418.02 74.0629 418 74.1343 418 74.207V79.793C418 79.8657 418.02 79.9371 418.058 80C418.096 80.0629 418.151 80.1151 418.217 80.1513L423.283 82.9445ZM423.5 82.5859L418.433 79.793V74.207L423.5 71.4135L428.566 74.207V79.793L423.5 82.5859ZM427.781 74.4464L423.676 72.1837C423.622 72.1543 423.561 72.1388 423.5 72.1388C423.438 72.1388 423.377 72.1543 423.324 72.1837L419.218 74.4464C419.165 74.4758 419.121 74.5181 419.09 74.569C419.059 74.6199 419.043 74.6777 419.043 74.7365V79.2621C419.043 79.3209 419.059 79.3788 419.09 79.4297C419.121 79.4807 419.165 79.523 419.218 79.5524L423.324 81.8152C423.377 81.8448 423.438 81.8604 423.5 81.8604C423.561 81.8604 423.622 81.8448 423.676 81.8152L427.781 79.5524C427.834 79.523 427.879 79.4807 427.909 79.4297C427.94 79.3788 427.956 79.3209 427.956 79.2621V74.7365C427.956 74.6777 427.94 74.6199 427.909 74.569C427.878 74.5181 427.834 74.4758 427.781 74.4464ZM427.747 79.1573C427.747 79.2132 427.731 79.2682 427.702 79.3166C427.673 79.365 427.63 79.4052 427.58 79.4331L423.667 81.5905C423.616 81.6182 423.559 81.6328 423.5 81.6328C423.441 81.6328 423.384 81.6182 423.333 81.5905L419.421 79.4331C419.37 79.4052 419.327 79.3648 419.298 79.3163C419.269 79.2677 419.253 79.2126 419.253 79.1565V74.8429C419.253 74.7869 419.269 74.7318 419.298 74.6832C419.328 74.6347 419.37 74.5944 419.421 74.5663L423.334 72.4099C423.385 72.3817 423.443 72.3669 423.501 72.3669C423.56 72.3669 423.618 72.3817 423.668 72.4099L427.581 74.5666C427.632 74.5947 427.673 74.6351 427.703 74.6836C427.732 74.7321 427.747 74.787 427.747 74.8429V79.1573ZM514.283 82.9445C514.349 82.9808 514.424 83 514.5 83C514.576 83 514.651 82.9808 514.717 82.9445L519.783 80.151C519.849 80.1148 519.904 80.0626 519.942 79.9997C519.98 79.9368 520 79.8654 520 79.7928V74.207C520 74.1342 519.98 74.0628 519.942 73.9998C519.904 73.9369 519.849 73.8847 519.783 73.8484L514.717 71.0555C514.651 71.0192 514.576 71 514.5 71C514.424 71 514.349 71.0192 514.283 71.0555L509.217 73.8487C509.151 73.8849 509.096 73.9371 509.058 74C509.02 74.0629 509 74.1343 509 74.207V79.793C509 79.8657 509.02 79.9371 509.058 80C509.096 80.0629 509.151 80.1151 509.217 80.1513L514.283 82.9445ZM514.5 82.5859L509.433 79.793V74.207L514.5 71.4135L519.566 74.207V79.793L514.5 82.5859ZM518.781 74.4464L514.676 72.1837C514.622 72.1543 514.561 72.1388 514.5 72.1388C514.438 72.1388 514.377 72.1543 514.324 72.1837L510.218 74.4464C510.165 74.4758 510.121 74.5181 510.09 74.569C510.059 74.6199 510.043 74.6777 510.043 74.7365V79.2621C510.043 79.3209 510.059 79.3788 510.09 79.4297C510.121 79.4807 510.165 79.523 510.218 79.5524L514.324 81.8152C514.377 81.8448 514.438 81.8604 514.5 81.8604C514.561 81.8604 514.622 81.8448 514.676 81.8152L518.781 79.5524C518.834 79.523 518.879 79.4807 518.909 79.4297C518.94 79.3788 518.956 79.3209 518.956 79.2621V74.7365C518.956 74.6777 518.94 74.6199 518.909 74.569C518.878 74.5181 518.834 74.4758 518.781 74.4464ZM518.747 79.1573C518.747 79.2132 518.731 79.2682 518.702 79.3166C518.673 79.365 518.63 79.4052 518.58 79.4331L514.667 81.5905C514.616 81.6182 514.559 81.6328 514.5 81.6328C514.441 81.6328 514.384 81.6182 514.333 81.5905L510.421 79.4331C510.37 79.4052 510.327 79.3648 510.298 79.3163C510.269 79.2677 510.253 79.2126 510.253 79.1565V74.8429C510.253 74.7869 510.269 74.7318 510.298 74.6832C510.328 74.6347 510.37 74.5944 510.421 74.5663L514.334 72.4099C514.385 72.3817 514.443 72.3669 514.501 72.3669C514.56 72.3669 514.618 72.3817 514.668 72.4099L518.581 74.5666C518.632 74.5947 518.673 74.6351 518.703 74.6836C518.732 74.7321 518.747 74.787 518.747 74.8429V79.1573Z" fill="#F2E3FF"/>
<path fill-rule="evenodd" clip-rule="evenodd" d="M471.771 134.806C471.992 134.933 472.244 135 472.5 135C472.756 135 473.007 134.933 473.229 134.806L490.271 125.029C490.492 124.902 490.676 124.719 490.804 124.499C490.933 124.279 491 124.029 491 123.775V104.224C491 103.97 490.933 103.72 490.805 103.499C490.677 103.279 490.492 103.096 490.271 102.969L473.229 93.1944C473.007 93.067 472.756 93 472.5 93C472.244 93 471.992 93.067 471.771 93.1944L454.729 102.97C454.507 103.097 454.323 103.28 454.195 103.5C454.068 103.72 454 103.97 454 104.224V123.776C454 124.03 454.068 124.28 454.196 124.5C454.324 124.72 454.508 124.903 454.729 125.03L471.771 134.806ZM472.499 133.551L455.458 123.776V104.224L472.499 94.4474L489.541 104.224V123.776L472.499 133.551ZM486.9 105.062L473.091 97.1428C472.911 97.0399 472.706 96.9858 472.499 96.9858C472.291 96.9858 472.087 97.0399 471.907 97.1428L458.098 105.062C457.919 105.165 457.77 105.313 457.666 105.491C457.562 105.67 457.508 105.872 457.508 106.078V121.917C457.508 122.123 457.562 122.326 457.666 122.504C457.77 122.682 457.919 122.831 458.098 122.934L471.907 130.853C472.087 130.957 472.291 131.012 472.499 131.012C472.707 131.012 472.911 130.957 473.091 130.853L486.9 122.934C487.079 122.831 487.228 122.682 487.332 122.504C487.435 122.326 487.49 122.123 487.49 121.917V106.078C487.49 105.872 487.435 105.67 487.331 105.491C487.228 105.313 487.079 105.165 486.9 105.062ZM486.785 121.55C486.785 121.746 486.733 121.939 486.634 122.108C486.535 122.278 486.393 122.418 486.223 122.516L473.062 130.067C472.891 130.164 472.697 130.215 472.5 130.215C472.303 130.215 472.11 130.164 471.938 130.067L458.778 122.516C458.607 122.418 458.465 122.277 458.366 122.107C458.267 121.937 458.215 121.744 458.216 121.548V106.45C458.216 106.254 458.268 106.061 458.367 105.891C458.466 105.721 458.608 105.58 458.778 105.482L471.943 97.9348C472.114 97.8361 472.308 97.7841 472.505 97.7841C472.702 97.7841 472.896 97.8361 473.067 97.9348L486.228 105.483C486.397 105.582 486.538 105.723 486.636 105.893C486.734 106.062 486.785 106.255 486.785 106.45V121.55Z" fill="#560AC6"/>
<path fill-rule="evenodd" clip-rule="evenodd" d="M1055.77 134.806C1055.99 134.933 1056.24 135 1056.5 135C1056.76 135 1057.01 134.933 1057.23 134.806L1074.27 125.029C1074.49 124.902 1074.68 124.719 1074.8 124.499C1074.93 124.279 1075 124.029 1075 123.775V104.224C1075 103.97 1074.93 103.72 1074.8 103.499C1074.68 103.279 1074.49 103.096 1074.27 102.969L1057.23 93.1944C1057.01 93.067 1056.76 93 1056.5 93C1056.24 93 1055.99 93.067 1055.77 93.1944L1038.73 102.97C1038.51 103.097 1038.32 103.28 1038.2 103.5C1038.07 103.72 1038 103.97 1038 104.224V123.776C1038 124.03 1038.07 124.28 1038.2 124.5C1038.32 124.72 1038.51 124.903 1038.73 125.03L1055.77 134.806ZM1056.5 133.551L1039.46 123.776V104.224L1056.5 94.4474L1073.54 104.224V123.776L1056.5 133.551ZM1070.9 105.062L1057.09 97.1428C1056.91 97.0399 1056.71 96.9858 1056.5 96.9858C1056.29 96.9858 1056.09 97.0399 1055.91 97.1428L1042.1 105.062C1041.92 105.165 1041.77 105.313 1041.67 105.491C1041.56 105.67 1041.51 105.872 1041.51 106.078V121.917C1041.51 122.123 1041.56 122.326 1041.67 122.504C1041.77 122.682 1041.92 122.831 1042.1 122.934L1055.91 130.853C1056.09 130.957 1056.29 131.012 1056.5 131.012C1056.71 131.012 1056.91 130.957 1057.09 130.853L1070.9 122.934C1071.08 122.831 1071.23 122.682 1071.33 122.504C1071.43 122.326 1071.49 122.123 1071.49 121.917V106.078C1071.49 105.872 1071.43 105.67 1071.33 105.491C1071.23 105.313 1071.08 105.165 1070.9 105.062ZM1070.78 121.55C1070.78 121.746 1070.73 121.939 1070.63 122.108C1070.54 122.278 1070.39 122.418 1070.22 122.516L1057.06 130.067C1056.89 130.164 1056.7 130.215 1056.5 130.215C1056.3 130.215 1056.11 130.164 1055.94 130.067L1042.78 122.516C1042.61 122.418 1042.46 122.277 1042.37 122.107C1042.27 121.937 1042.22 121.744 1042.22 121.548V106.45C1042.22 106.254 1042.27 106.061 1042.37 105.891C1042.47 105.721 1042.61 105.58 1042.78 105.482L1055.94 97.9348C1056.11 97.8361 1056.31 97.7841 1056.5 97.7841C1056.7 97.7841 1056.9 97.8361 1057.07 97.9348L1070.23 105.483C1070.4 105.582 1070.54 105.723 1070.64 105.893C1070.73 106.062 1070.78 106.255 1070.78 106.45V121.55Z" fill="#560AC6"/>
<path fill-rule="evenodd" clip-rule="evenodd" d="M381.771 134.806C381.992 134.933 382.244 135 382.5 135C382.756 135 383.007 134.933 383.229 134.806L400.271 125.029C400.492 124.902 400.676 124.719 400.804 124.499C400.933 124.279 401 124.029 401 123.775V104.224C401 103.97 400.933 103.72 400.805 103.499C400.677 103.279 400.492 103.096 400.271 102.969L383.229 93.1944C383.007 93.067 382.756 93 382.5 93C382.244 93 381.992 93.067 381.771 93.1944L364.729 102.97C364.507 103.097 364.323 103.28 364.195 103.5C364.068 103.72 364 103.97 364 104.224V123.776C364 124.03 364.068 124.28 364.196 124.5C364.324 124.72 364.508 124.903 364.729 125.03L381.771 134.806ZM382.499 133.551L365.458 123.776V104.224L382.499 94.4474L399.541 104.224V123.776L382.499 133.551ZM396.9 105.062L383.091 97.1428C382.911 97.0399 382.706 96.9858 382.499 96.9858C382.291 96.9858 382.087 97.0399 381.907 97.1428L368.098 105.062C367.919 105.165 367.77 105.313 367.666 105.491C367.562 105.67 367.508 105.872 367.508 106.078V121.917C367.508 122.123 367.562 122.326 367.666 122.504C367.77 122.682 367.919 122.831 368.098 122.934L381.907 130.853C382.087 130.957 382.291 131.012 382.499 131.012C382.707 131.012 382.911 130.957 383.091 130.853L396.9 122.934C397.079 122.831 397.228 122.682 397.332 122.504C397.435 122.326 397.49 122.123 397.49 121.917V106.078C397.49 105.872 397.435 105.67 397.331 105.491C397.228 105.313 397.079 105.165 396.9 105.062ZM396.785 121.55C396.785 121.746 396.733 121.939 396.634 122.108C396.535 122.278 396.393 122.418 396.223 122.516L383.062 130.067C382.891 130.164 382.697 130.215 382.5 130.215C382.303 130.215 382.11 130.164 381.938 130.067L368.778 122.516C368.607 122.418 368.465 122.277 368.366 122.107C368.267 121.937 368.215 121.744 368.216 121.548V106.45C368.216 106.254 368.268 106.061 368.367 105.891C368.466 105.721 368.608 105.58 368.778 105.482L381.943 97.9348C382.114 97.8361 382.308 97.7841 382.505 97.7841C382.702 97.7841 382.896 97.8361 383.067 97.9348L396.228 105.483C396.397 105.582 396.538 105.723 396.636 105.893C396.734 106.062 396.785 106.255 396.785 106.45V121.55Z" fill="#560AC6"/>
<path fill-rule="evenodd" clip-rule="evenodd" d="M965.77 134.806C965.992 134.933 966.244 135 966.5 135C966.756 135 967.007 134.933 967.229 134.806L984.27 125.029C984.492 124.902 984.676 124.719 984.804 124.499C984.932 124.279 985 124.029 985 123.775V104.224C985 103.97 984.933 103.72 984.804 103.499C984.676 103.279 984.492 103.096 984.27 102.969L967.229 93.1944C967.007 93.067 966.756 93 966.5 93C966.244 93 965.992 93.067 965.77 93.1944L948.729 102.97C948.507 103.097 948.323 103.28 948.195 103.5C948.067 103.72 948 103.97 948 104.224V123.776C948 124.03 948.067 124.28 948.195 124.5C948.323 124.72 948.507 124.903 948.729 125.03L965.77 134.806ZM966.499 133.551L949.458 123.776V104.224L966.499 94.4474L983.541 104.224V123.776L966.499 133.551ZM980.899 105.062L967.09 97.1428C966.91 97.0399 966.706 96.9858 966.499 96.9858C966.291 96.9858 966.087 97.0399 965.907 97.1428L952.098 105.062C951.918 105.165 951.769 105.313 951.666 105.491C951.562 105.67 951.508 105.872 951.507 106.078V121.917C951.507 122.123 951.562 122.326 951.666 122.504C951.769 122.682 951.918 122.831 952.098 122.934L965.907 130.853C966.087 130.957 966.291 131.012 966.499 131.012C966.706 131.012 966.911 130.957 967.09 130.853L980.899 122.934C981.079 122.831 981.228 122.682 981.331 122.504C981.435 122.326 981.49 122.123 981.49 121.917V106.078C981.49 105.872 981.435 105.67 981.331 105.491C981.228 105.313 981.079 105.165 980.899 105.062ZM980.785 121.55C980.784 121.746 980.732 121.939 980.634 122.108C980.535 122.278 980.393 122.418 980.223 122.516L967.062 130.067C966.891 130.164 966.697 130.215 966.5 130.215C966.303 130.215 966.109 130.164 965.938 130.067L952.778 122.516C952.607 122.418 952.465 122.277 952.366 122.107C952.267 121.937 952.215 121.744 952.215 121.548V106.45C952.216 106.254 952.268 106.061 952.367 105.891C952.466 105.721 952.607 105.58 952.778 105.482L965.943 97.9348C966.113 97.8361 966.307 97.7841 966.505 97.7841C966.702 97.7841 966.896 97.8361 967.067 97.9348L980.227 105.483C980.397 105.582 980.538 105.723 980.636 105.893C980.734 106.062 980.785 106.255 980.785 106.45V121.55Z" fill="#560AC6"/>
<path fill-rule="evenodd" clip-rule="evenodd" d="M973 54C972.875 54 972.753 53.9681 972.645 53.9074L964.355 49.2522C964.247 49.1918 964.157 49.1048 964.095 49C964.033 48.8951 964 48.7762 964 48.655V39.345C964 39.2239 964.033 39.1049 964.095 39.0001C964.157 38.8952 964.247 38.8082 964.355 38.7478L972.645 34.0926C972.753 34.0319 972.875 34 973 34C973.124 34 973.247 34.0319 973.355 34.0926L981.645 38.7473C981.753 38.8078 981.843 38.8948 981.905 38.9997C981.967 39.1047 982 39.2237 982 39.345V48.6546C982 48.7757 981.967 48.8947 981.905 48.9995C981.842 49.1044 981.753 49.1913 981.645 49.2517L973.355 53.9074C973.247 53.9681 973.124 54 973 54ZM964.709 48.655L973 53.3099L981.29 48.655V39.345L973 34.6892L964.709 39.345V48.655ZM973.287 35.9728L980.005 39.744C980.092 39.793 980.165 39.8634 980.215 39.9483C980.266 40.0332 980.292 40.1295 980.292 40.2276V47.7701C980.292 47.8682 980.266 47.9646 980.215 48.0496C980.165 48.1345 980.092 48.2051 980.005 48.2541L973.287 52.0253C973.2 52.0747 973.1 52.1007 972.999 52.1007C972.898 52.1007 972.799 52.0747 972.711 52.0253L965.994 48.2541C965.906 48.2051 965.834 48.1345 965.783 48.0496C965.733 47.9646 965.706 47.8682 965.706 47.7701V40.2276C965.706 40.1295 965.733 40.0332 965.783 39.9483C965.834 39.8634 965.906 39.793 965.994 39.744L972.711 35.9728C972.799 35.9238 972.898 35.898 972.999 35.898C973.1 35.898 973.2 35.9238 973.287 35.9728ZM979.876 47.861C979.924 47.7803 979.949 47.6887 979.949 47.5955V40.4049C979.949 40.3117 979.924 40.2202 979.877 40.1393C979.829 40.0585 979.761 39.9912 979.678 39.9443L973.276 36.3499C973.193 36.3029 973.098 36.2781 973.002 36.2781C972.906 36.2781 972.812 36.3029 972.729 36.3499L966.325 39.9438C966.241 39.9906 966.172 40.0578 966.124 40.1387C966.076 40.2196 966.051 40.3114 966.051 40.4049V47.5941C966.051 47.6876 966.076 47.7795 966.124 47.8605C966.172 47.9414 966.241 48.0086 966.325 48.0552L972.727 51.6509C972.81 51.697 972.904 51.7213 973 51.7213C973.096 51.7213 973.19 51.697 973.273 51.6509L979.676 48.0552C979.759 48.0087 979.828 47.9417 979.876 47.861ZM1065.64 53.9074C1065.75 53.9681 1065.88 54 1066 54C1066.12 54 1066.25 53.9681 1066.35 53.9074L1074.64 49.2517C1074.75 49.1913 1074.84 49.1044 1074.9 48.9995C1074.97 48.8947 1075 48.7757 1075 48.6546V39.345C1075 39.2237 1074.97 39.1047 1074.9 38.9997C1074.84 38.8948 1074.75 38.8078 1074.64 38.7473L1066.35 34.0926C1066.25 34.0319 1066.12 34 1066 34C1065.88 34 1065.75 34.0319 1065.64 34.0926L1057.35 38.7478C1057.25 38.8082 1057.16 38.8952 1057.09 39.0001C1057.03 39.1049 1057 39.2239 1057 39.345V48.655C1057 48.7762 1057.03 48.8951 1057.1 49C1057.16 49.1048 1057.25 49.1918 1057.35 49.2522L1065.64 53.9074ZM1066 53.3099L1057.71 48.655V39.345L1066 34.6892L1074.29 39.345V48.655L1066 53.3099ZM1073.01 39.744L1066.29 35.9728C1066.2 35.9238 1066.1 35.898 1066 35.898C1065.9 35.898 1065.8 35.9238 1065.71 35.9728L1058.99 39.744C1058.91 39.793 1058.83 39.8634 1058.78 39.9483C1058.73 40.0332 1058.71 40.1295 1058.71 40.2276V47.7701C1058.71 47.8682 1058.73 47.9646 1058.78 48.0496C1058.83 48.1345 1058.91 48.2051 1058.99 48.2541L1065.71 52.0253C1065.8 52.0747 1065.9 52.1007 1066 52.1007C1066.1 52.1007 1066.2 52.0747 1066.29 52.0253L1073.01 48.2541C1073.09 48.2051 1073.16 48.1345 1073.22 48.0496C1073.27 47.9646 1073.29 47.8682 1073.29 47.7701V40.2276C1073.29 40.1295 1073.27 40.0332 1073.22 39.9483C1073.16 39.8634 1073.09 39.793 1073.01 39.744ZM1072.95 47.5955C1072.95 47.6887 1072.92 47.7803 1072.88 47.861C1072.83 47.9417 1072.76 48.0087 1072.68 48.0552L1066.27 51.6509C1066.19 51.697 1066.1 51.7213 1066 51.7213C1065.9 51.7213 1065.81 51.697 1065.73 51.6509L1059.32 48.0552C1059.24 48.0086 1059.17 47.9414 1059.12 47.8605C1059.08 47.7795 1059.05 47.6876 1059.05 47.5941V40.4049C1059.05 40.3114 1059.08 40.2196 1059.12 40.1387C1059.17 40.0578 1059.24 39.9906 1059.32 39.9438L1065.73 36.3499C1065.81 36.3029 1065.91 36.2781 1066 36.2781C1066.1 36.2781 1066.19 36.3029 1066.28 36.3499L1072.68 39.9443C1072.76 39.9912 1072.83 40.0585 1072.88 40.1393C1072.92 40.2202 1072.95 40.3117 1072.95 40.4049V47.5955ZM1164 54C1163.88 54 1163.75 53.9681 1163.65 53.9074L1155.35 49.2522C1155.25 49.1918 1155.16 49.1048 1155.1 49C1155.03 48.8951 1155 48.7762 1155 48.655V39.345C1155 39.2239 1155.03 39.1049 1155.09 39.0001C1155.16 38.8952 1155.25 38.8082 1155.35 38.7478L1163.65 34.0926C1163.75 34.0319 1163.88 34 1164 34C1164.12 34 1164.25 34.0319 1164.35 34.0926L1172.65 38.7473C1172.75 38.8078 1172.84 38.8948 1172.9 38.9997C1172.97 39.1047 1173 39.2237 1173 39.345V48.6546C1173 48.7757 1172.97 48.8947 1172.9 48.9995C1172.84 49.1044 1172.75 49.1913 1172.65 49.2517L1164.35 53.9074C1164.25 53.9681 1164.12 54 1164 54ZM1155.71 48.655L1164 53.3099L1172.29 48.655V39.345L1164 34.6892L1155.71 39.345V48.655ZM1164.29 35.9728L1171.01 39.744C1171.09 39.793 1171.16 39.8634 1171.22 39.9483C1171.27 40.0332 1171.29 40.1295 1171.29 40.2276V47.7701C1171.29 47.8682 1171.27 47.9646 1171.22 48.0496C1171.16 48.1345 1171.09 48.2051 1171.01 48.2541L1164.29 52.0253C1164.2 52.0747 1164.1 52.1007 1164 52.1007C1163.9 52.1007 1163.8 52.0747 1163.71 52.0253L1156.99 48.2541C1156.91 48.2051 1156.83 48.1345 1156.78 48.0496C1156.73 47.9646 1156.71 47.8682 1156.71 47.7701V40.2276C1156.71 40.1295 1156.73 40.0332 1156.78 39.9483C1156.83 39.8634 1156.91 39.793 1156.99 39.744L1163.71 35.9728C1163.8 35.9238 1163.9 35.898 1164 35.898C1164.1 35.898 1164.2 35.9238 1164.29 35.9728ZM1170.88 47.861C1170.92 47.7803 1170.95 47.6887 1170.95 47.5955V40.4049C1170.95 40.3117 1170.92 40.2202 1170.88 40.1393C1170.83 40.0585 1170.76 39.9912 1170.68 39.9443L1164.28 36.3499C1164.19 36.3029 1164.1 36.2781 1164 36.2781C1163.91 36.2781 1163.81 36.3029 1163.73 36.3499L1157.32 39.9438C1157.24 39.9906 1157.17 40.0578 1157.12 40.1387C1157.08 40.2196 1157.05 40.3114 1157.05 40.4049V47.5941C1157.05 47.6876 1157.08 47.7795 1157.12 47.8605C1157.17 47.9414 1157.24 48.0086 1157.32 48.0552L1163.73 51.6509C1163.81 51.697 1163.9 51.7213 1164 51.7213C1164.1 51.7213 1164.19 51.697 1164.27 51.6509L1170.68 48.0552C1170.76 48.0087 1170.83 47.9417 1170.88 47.861ZM1263.64 53.9074C1263.75 53.9681 1263.88 54 1264 54C1264.12 54 1264.25 53.9681 1264.35 53.9074L1272.64 49.2517C1272.75 49.1913 1272.84 49.1044 1272.9 48.9995C1272.97 48.8947 1273 48.7757 1273 48.6546V39.345C1273 39.2237 1272.97 39.1047 1272.9 38.9997C1272.84 38.8948 1272.75 38.8078 1272.64 38.7473L1264.35 34.0926C1264.25 34.0319 1264.12 34 1264 34C1263.88 34 1263.75 34.0319 1263.64 34.0926L1255.35 38.7478C1255.25 38.8082 1255.16 38.8952 1255.09 39.0001C1255.03 39.1049 1255 39.2239 1255 39.345V48.655C1255 48.7762 1255.03 48.8951 1255.1 49C1255.16 49.1048 1255.25 49.1918 1255.35 49.2522L1263.64 53.9074ZM1264 53.3099L1255.71 48.655V39.345L1264 34.6892L1272.29 39.345V48.655L1264 53.3099ZM1271.01 39.744L1264.29 35.9728C1264.2 35.9238 1264.1 35.898 1264 35.898C1263.9 35.898 1263.8 35.9238 1263.71 35.9728L1256.99 39.744C1256.91 39.793 1256.83 39.8634 1256.78 39.9483C1256.73 40.0332 1256.71 40.1295 1256.71 40.2276V47.7701C1256.71 47.8682 1256.73 47.9646 1256.78 48.0496C1256.83 48.1345 1256.91 48.2051 1256.99 48.2541L1263.71 52.0253C1263.8 52.0747 1263.9 52.1007 1264 52.1007C1264.1 52.1007 1264.2 52.0747 1264.29 52.0253L1271.01 48.2541C1271.09 48.2051 1271.16 48.1345 1271.22 48.0496C1271.27 47.9646 1271.29 47.8682 1271.29 47.7701V40.2276C1271.29 40.1295 1271.27 40.0332 1271.22 39.9483C1271.16 39.8634 1271.09 39.793 1271.01 39.744ZM1270.95 47.5955C1270.95 47.6887 1270.92 47.7803 1270.88 47.861C1270.83 47.9417 1270.76 48.0087 1270.68 48.0552L1264.27 51.6509C1264.19 51.697 1264.1 51.7213 1264 51.7213C1263.9 51.7213 1263.81 51.697 1263.73 51.6509L1257.32 48.0552C1257.24 48.0086 1257.17 47.9414 1257.12 47.8605C1257.08 47.7795 1257.05 47.6876 1257.05 47.5941V40.4049C1257.05 40.3114 1257.08 40.2196 1257.12 40.1387C1257.17 40.0578 1257.24 39.9906 1257.32 39.9438L1263.73 36.3499C1263.81 36.3029 1263.91 36.2781 1264 36.2781C1264.1 36.2781 1264.19 36.3029 1264.28 36.3499L1270.68 39.9443C1270.76 39.9912 1270.83 40.0585 1270.88 40.1393C1270.92 40.2202 1270.95 40.3117 1270.95 40.4049V47.5955ZM1354.64 53.9074C1354.75 53.9681 1354.88 54 1355 54C1355.12 54 1355.25 53.9681 1355.35 53.9074L1363.64 49.2517C1363.75 49.1913 1363.84 49.1044 1363.9 48.9995C1363.97 48.8947 1364 48.7757 1364 48.6546V39.345C1364 39.2237 1363.97 39.1047 1363.9 38.9997C1363.84 38.8948 1363.75 38.8078 1363.64 38.7473L1355.35 34.0926C1355.25 34.0319 1355.12 34 1355 34C1354.88 34 1354.75 34.0319 1354.64 34.0926L1346.35 38.7478C1346.25 38.8082 1346.16 38.8952 1346.09 39.0001C1346.03 39.1049 1346 39.2239 1346 39.345V48.655C1346 48.7762 1346.03 48.8951 1346.1 49C1346.16 49.1048 1346.25 49.1918 1346.35 49.2522L1354.64 53.9074ZM1355 53.3099L1346.71 48.655V39.345L1355 34.6892L1363.29 39.345V48.655L1355 53.3099ZM1362.01 39.744L1355.29 35.9728C1355.2 35.9238 1355.1 35.898 1355 35.898C1354.9 35.898 1354.8 35.9238 1354.71 35.9728L1347.99 39.744C1347.91 39.793 1347.83 39.8634 1347.78 39.9483C1347.73 40.0332 1347.71 40.1295 1347.71 40.2276V47.7701C1347.71 47.8682 1347.73 47.9646 1347.78 48.0496C1347.83 48.1345 1347.91 48.2051 1347.99 48.2541L1354.71 52.0253C1354.8 52.0747 1354.9 52.1007 1355 52.1007C1355.1 52.1007 1355.2 52.0747 1355.29 52.0253L1362.01 48.2541C1362.09 48.2051 1362.16 48.1345 1362.22 48.0496C1362.27 47.9646 1362.29 47.8682 1362.29 47.7701V40.2276C1362.29 40.1295 1362.27 40.0332 1362.22 39.9483C1362.16 39.8634 1362.09 39.793 1362.01 39.744ZM1361.95 47.5955C1361.95 47.6887 1361.92 47.7803 1361.88 47.861C1361.83 47.9417 1361.76 48.0087 1361.68 48.0552L1355.27 51.6509C1355.19 51.697 1355.1 51.7213 1355 51.7213C1354.9 51.7213 1354.81 51.697 1354.73 51.6509L1348.32 48.0552C1348.24 48.0086 1348.17 47.9414 1348.12 47.8605C1348.08 47.7795 1348.05 47.6876 1348.05 47.5941V40.4049C1348.05 40.3114 1348.08 40.2196 1348.12 40.1387C1348.17 40.0578 1348.24 39.9906 1348.32 39.9438L1354.73 36.3499C1354.81 36.3029 1354.91 36.2781 1355 36.2781C1355.1 36.2781 1355.19 36.3029 1355.28 36.3499L1361.68 39.9443C1361.76 39.9912 1361.83 40.0585 1361.88 40.1393C1361.92 40.2202 1361.95 40.3117 1361.95 40.4049V47.5955Z" fill="#9013FE" fill-opacity="0.6"/>
<path fill-rule="evenodd" clip-rule="evenodd" d="M1308.5 83C1308.42 83 1308.35 82.9808 1308.28 82.9445L1303.22 80.1513C1303.15 80.1151 1303.1 80.0629 1303.06 80C1303.02 79.9371 1303 79.8657 1303 79.793V74.207C1303 74.1343 1303.02 74.0629 1303.06 74C1303.1 73.9371 1303.15 73.8849 1303.22 73.8487L1308.28 71.0555C1308.35 71.0192 1308.42 71 1308.5 71C1308.58 71 1308.65 71.0192 1308.72 71.0555L1313.78 73.8484C1313.85 73.8847 1313.9 73.9369 1313.94 73.9998C1313.98 74.0628 1314 74.1342 1314 74.207V79.7928C1314 79.8654 1313.98 79.9368 1313.94 79.9997C1313.9 80.0626 1313.85 80.1148 1313.78 80.151L1308.72 82.9445C1308.65 82.9808 1308.58 83 1308.5 83ZM1303.43 79.793L1308.5 82.5859L1313.57 79.793V74.207L1308.5 71.4135L1303.43 74.207V79.793ZM1308.68 72.1837L1312.78 74.4464C1312.83 74.4758 1312.88 74.5181 1312.91 74.569C1312.94 74.6199 1312.96 74.6777 1312.96 74.7365V79.2621C1312.96 79.3209 1312.94 79.3788 1312.91 79.4297C1312.88 79.4807 1312.83 79.523 1312.78 79.5524L1308.68 81.8152C1308.62 81.8448 1308.56 81.8604 1308.5 81.8604C1308.44 81.8604 1308.38 81.8448 1308.32 81.8152L1304.22 79.5524C1304.16 79.523 1304.12 79.4807 1304.09 79.4297C1304.06 79.3788 1304.04 79.3209 1304.04 79.2621V74.7365C1304.04 74.6777 1304.06 74.6199 1304.09 74.569C1304.12 74.5181 1304.16 74.4758 1304.22 74.4464L1308.32 72.1837C1308.38 72.1543 1308.44 72.1388 1308.5 72.1388C1308.56 72.1388 1308.62 72.1543 1308.68 72.1837ZM1312.7 79.3166C1312.73 79.2682 1312.75 79.2132 1312.75 79.1573V74.8429C1312.75 74.787 1312.73 74.7321 1312.7 74.6836C1312.67 74.6351 1312.63 74.5947 1312.58 74.5666L1308.67 72.4099C1308.62 72.3817 1308.56 72.3669 1308.5 72.3669C1308.44 72.3669 1308.39 72.3817 1308.33 72.4099L1304.42 74.5663C1304.37 74.5944 1304.33 74.6347 1304.3 74.6832C1304.27 74.7318 1304.25 74.7869 1304.25 74.8429V79.1565C1304.25 79.2126 1304.27 79.2677 1304.3 79.3163C1304.33 79.3648 1304.37 79.4052 1304.42 79.4331L1308.33 81.5905C1308.38 81.6182 1308.44 81.6328 1308.5 81.6328C1308.56 81.6328 1308.62 81.6182 1308.67 81.5905L1312.58 79.4331C1312.63 79.4052 1312.67 79.365 1312.7 79.3166ZM1215.28 82.9445C1215.35 82.9808 1215.42 83 1215.5 83C1215.58 83 1215.65 82.9808 1215.72 82.9445L1220.78 80.151C1220.85 80.1148 1220.9 80.0626 1220.94 79.9997C1220.98 79.9368 1221 79.8654 1221 79.7928V74.207C1221 74.1342 1220.98 74.0628 1220.94 73.9998C1220.9 73.9369 1220.85 73.8847 1220.78 73.8484L1215.72 71.0555C1215.65 71.0192 1215.58 71 1215.5 71C1215.42 71 1215.35 71.0192 1215.28 71.0555L1210.22 73.8487C1210.15 73.8849 1210.1 73.9371 1210.06 74C1210.02 74.0629 1210 74.1343 1210 74.207V79.793C1210 79.8657 1210.02 79.9371 1210.06 80C1210.1 80.0629 1210.15 80.1151 1210.22 80.1513L1215.28 82.9445ZM1215.5 82.5859L1210.43 79.793V74.207L1215.5 71.4135L1220.57 74.207V79.793L1215.5 82.5859ZM1219.78 74.4464L1215.68 72.1837C1215.62 72.1543 1215.56 72.1388 1215.5 72.1388C1215.44 72.1388 1215.38 72.1543 1215.32 72.1837L1211.22 74.4464C1211.16 74.4758 1211.12 74.5181 1211.09 74.569C1211.06 74.6199 1211.04 74.6777 1211.04 74.7365V79.2621C1211.04 79.3209 1211.06 79.3788 1211.09 79.4297C1211.12 79.4807 1211.16 79.523 1211.22 79.5524L1215.32 81.8152C1215.38 81.8448 1215.44 81.8604 1215.5 81.8604C1215.56 81.8604 1215.62 81.8448 1215.68 81.8152L1219.78 79.5524C1219.83 79.523 1219.88 79.4807 1219.91 79.4297C1219.94 79.3788 1219.96 79.3209 1219.96 79.2621V74.7365C1219.96 74.6777 1219.94 74.6199 1219.91 74.569C1219.88 74.5181 1219.83 74.4758 1219.78 74.4464ZM1219.75 79.1573C1219.75 79.2132 1219.73 79.2682 1219.7 79.3166C1219.67 79.365 1219.63 79.4052 1219.58 79.4331L1215.67 81.5905C1215.62 81.6182 1215.56 81.6328 1215.5 81.6328C1215.44 81.6328 1215.38 81.6182 1215.33 81.5905L1211.42 79.4331C1211.37 79.4052 1211.33 79.3648 1211.3 79.3163C1211.27 79.2677 1211.25 79.2126 1211.25 79.1565V74.8429C1211.25 74.7869 1211.27 74.7318 1211.3 74.6832C1211.33 74.6347 1211.37 74.5944 1211.42 74.5663L1215.33 72.4099C1215.39 72.3817 1215.44 72.3669 1215.5 72.3669C1215.56 72.3669 1215.62 72.3817 1215.67 72.4099L1219.58 74.5666C1219.63 74.5947 1219.67 74.6351 1219.7 74.6836C1219.73 74.7321 1219.75 74.787 1219.75 74.8429V79.1573ZM1117.5 83C1117.42 83 1117.35 82.9808 1117.28 82.9445L1112.22 80.1513C1112.15 80.1151 1112.1 80.0629 1112.06 80C1112.02 79.9371 1112 79.8657 1112 79.793V74.207C1112 74.1343 1112.02 74.0629 1112.06 74C1112.1 73.9371 1112.15 73.8849 1112.22 73.8487L1117.28 71.0555C1117.35 71.0192 1117.42 71 1117.5 71C1117.58 71 1117.65 71.0192 1117.72 71.0555L1122.78 73.8484C1122.85 73.8847 1122.9 73.9369 1122.94 73.9998C1122.98 74.0628 1123 74.1342 1123 74.207V79.7928C1123 79.8654 1122.98 79.9368 1122.94 79.9997C1122.9 80.0626 1122.85 80.1148 1122.78 80.151L1117.72 82.9445C1117.65 82.9808 1117.58 83 1117.5 83ZM1112.43 79.793L1117.5 82.5859L1122.57 79.793V74.207L1117.5 71.4135L1112.43 74.207V79.793ZM1117.68 72.1837L1121.78 74.4464C1121.83 74.4758 1121.88 74.5181 1121.91 74.569C1121.94 74.6199 1121.96 74.6777 1121.96 74.7365V79.2621C1121.96 79.3209 1121.94 79.3788 1121.91 79.4297C1121.88 79.4807 1121.83 79.523 1121.78 79.5524L1117.68 81.8152C1117.62 81.8448 1117.56 81.8604 1117.5 81.8604C1117.44 81.8604 1117.38 81.8448 1117.32 81.8152L1113.22 79.5524C1113.16 79.523 1113.12 79.4807 1113.09 79.4297C1113.06 79.3788 1113.04 79.3209 1113.04 79.2621V74.7365C1113.04 74.6777 1113.06 74.6199 1113.09 74.569C1113.12 74.5181 1113.16 74.4758 1113.22 74.4464L1117.32 72.1837C1117.38 72.1543 1117.44 72.1388 1117.5 72.1388C1117.56 72.1388 1117.62 72.1543 1117.68 72.1837ZM1121.7 79.3166C1121.73 79.2682 1121.75 79.2132 1121.75 79.1573V74.8429C1121.75 74.787 1121.73 74.7321 1121.7 74.6836C1121.67 74.6351 1121.63 74.5947 1121.58 74.5666L1117.67 72.4099C1117.62 72.3817 1117.56 72.3669 1117.5 72.3669C1117.44 72.3669 1117.39 72.3817 1117.33 72.4099L1113.42 74.5663C1113.37 74.5944 1113.33 74.6347 1113.3 74.6832C1113.27 74.7318 1113.25 74.7869 1113.25 74.8429V79.1565C1113.25 79.2126 1113.27 79.2677 1113.3 79.3163C1113.33 79.3648 1113.37 79.4052 1113.42 79.4331L1117.33 81.5905C1117.38 81.6182 1117.44 81.6328 1117.5 81.6328C1117.56 81.6328 1117.62 81.6182 1117.67 81.5905L1121.58 79.4331C1121.63 79.4052 1121.67 79.365 1121.7 79.3166ZM1017.28 82.9445C1017.35 82.9808 1017.42 83 1017.5 83C1017.58 83 1017.65 82.9808 1017.72 82.9445L1022.78 80.151C1022.85 80.1148 1022.9 80.0626 1022.94 79.9997C1022.98 79.9368 1023 79.8654 1023 79.7928V74.207C1023 74.1342 1022.98 74.0628 1022.94 73.9998C1022.9 73.9369 1022.85 73.8847 1022.78 73.8484L1017.72 71.0555C1017.65 71.0192 1017.58 71 1017.5 71C1017.42 71 1017.35 71.0192 1017.28 71.0555L1012.22 73.8487C1012.15 73.8849 1012.1 73.9371 1012.06 74C1012.02 74.0629 1012 74.1343 1012 74.207V79.793C1012 79.8657 1012.02 79.9371 1012.06 80C1012.1 80.0629 1012.15 80.1151 1012.22 80.1513L1017.28 82.9445ZM1017.5 82.5859L1012.43 79.793V74.207L1017.5 71.4135L1022.57 74.207V79.793L1017.5 82.5859ZM1021.78 74.4464L1017.68 72.1837C1017.62 72.1543 1017.56 72.1388 1017.5 72.1388C1017.44 72.1388 1017.38 72.1543 1017.32 72.1837L1013.22 74.4464C1013.16 74.4758 1013.12 74.5181 1013.09 74.569C1013.06 74.6199 1013.04 74.6777 1013.04 74.7365V79.2621C1013.04 79.3209 1013.06 79.3788 1013.09 79.4297C1013.12 79.4807 1013.16 79.523 1013.22 79.5524L1017.32 81.8152C1017.38 81.8448 1017.44 81.8604 1017.5 81.8604C1017.56 81.8604 1017.62 81.8448 1017.68 81.8152L1021.78 79.5524C1021.83 79.523 1021.88 79.4807 1021.91 79.4297C1021.94 79.3788 1021.96 79.3209 1021.96 79.2621V74.7365C1021.96 74.6777 1021.94 74.6199 1021.91 74.569C1021.88 74.5181 1021.83 74.4758 1021.78 74.4464ZM1021.75 79.1573C1021.75 79.2132 1021.73 79.2682 1021.7 79.3166C1021.67 79.365 1021.63 79.4052 1021.58 79.4331L1017.67 81.5905C1017.62 81.6182 1017.56 81.6328 1017.5 81.6328C1017.44 81.6328 1017.38 81.6182 1017.33 81.5905L1013.42 79.4331C1013.37 79.4052 1013.33 79.3648 1013.3 79.3163C1013.27 79.2677 1013.25 79.2126 1013.25 79.1565V74.8429C1013.25 74.7869 1013.27 74.7318 1013.3 74.6832C1013.33 74.6347 1013.37 74.5944 1013.42 74.5663L1017.33 72.4099C1017.39 72.3817 1017.44 72.3669 1017.5 72.3669C1017.56 72.3669 1017.62 72.3817 1017.67 72.4099L1021.58 74.5666C1021.63 74.5947 1021.67 74.6351 1021.7 74.6836C1021.73 74.7321 1021.75 74.787 1021.75 74.8429V79.1573ZM926.283 82.9445C926.349 82.9808 926.424 83 926.5 83C926.576 83 926.651 82.9808 926.717 82.9445L931.783 80.151C931.849 80.1148 931.904 80.0626 931.942 79.9997C931.98 79.9368 932 79.8654 932 79.7928V74.207C932 74.1342 931.98 74.0628 931.942 73.9998C931.904 73.9369 931.849 73.8847 931.783 73.8484L926.717 71.0555C926.651 71.0192 926.576 71 926.5 71C926.424 71 926.349 71.0192 926.283 71.0555L921.217 73.8487C921.151 73.8849 921.096 73.9371 921.058 74C921.02 74.0629 921 74.1343 921 74.207V79.793C921 79.8657 921.02 79.9371 921.058 80C921.096 80.0629 921.151 80.1151 921.217 80.1513L926.283 82.9445ZM926.5 82.5859L921.433 79.793V74.207L926.5 71.4135L931.566 74.207V79.793L926.5 82.5859ZM930.781 74.4464L926.676 72.1837C926.622 72.1543 926.561 72.1388 926.5 72.1388C926.438 72.1388 926.377 72.1543 926.324 72.1837L922.218 74.4464C922.165 74.4758 922.121 74.5181 922.09 74.569C922.059 74.6199 922.043 74.6777 922.043 74.7365V79.2621C922.043 79.3209 922.059 79.3788 922.09 79.4297C922.121 79.4807 922.165 79.523 922.218 79.5524L926.324 81.8152C926.377 81.8448 926.438 81.8604 926.5 81.8604C926.561 81.8604 926.622 81.8448 926.676 81.8152L930.781 79.5524C930.834 79.523 930.879 79.4807 930.909 79.4297C930.94 79.3788 930.956 79.3209 930.956 79.2621V74.7365C930.956 74.6777 930.94 74.6199 930.909 74.569C930.878 74.5181 930.834 74.4758 930.781 74.4464ZM930.747 79.1573C930.747 79.2132 930.731 79.2682 930.702 79.3166C930.673 79.365 930.63 79.4052 930.58 79.4331L926.667 81.5905C926.616 81.6182 926.559 81.6328 926.5 81.6328C926.441 81.6328 926.384 81.6182 926.333 81.5905L922.421 79.4331C922.37 79.4052 922.327 79.3648 922.298 79.3163C922.269 79.2677 922.253 79.2126 922.253 79.1565V74.8429C922.253 74.7869 922.269 74.7318 922.298 74.6832C922.328 74.6347 922.37 74.5944 922.421 74.5663L926.334 72.4099C926.385 72.3817 926.443 72.3669 926.501 72.3669C926.56 72.3669 926.618 72.3817 926.668 72.4099L930.581 74.5666C930.632 74.5947 930.673 74.6351 930.703 74.6836C930.732 74.7321 930.747 74.787 930.747 74.8429V79.1573Z" fill="#F2E3FF"/>
<path fill-rule="evenodd" clip-rule="evenodd" d="M718.107 140.491C718.682 140.824 719.334 141 719.999 141C720.663 141 721.316 140.824 721.891 140.491L766.107 114.884C766.682 114.552 767.16 114.074 767.492 113.497C767.824 112.921 768 112.266 768 111.6V60.3973C768 59.7306 767.825 59.0757 767.493 58.4986C767.16 57.9215 766.682 57.4427 766.107 57.1104L721.891 31.5091C721.316 31.1756 720.663 31 719.999 31C719.334 31 718.682 31.1756 718.107 31.5091L673.891 57.1131C673.316 57.4453 672.839 57.9238 672.507 58.5003C672.175 59.0769 672 59.7312 672 60.3973V111.603C672 112.269 672.175 112.923 672.507 113.5C672.839 114.076 673.317 114.555 673.892 114.887L718.107 140.491ZM719.998 137.204L675.782 111.603V60.3973L719.998 34.7908L764.213 60.3973V111.603L719.998 137.204ZM757.36 62.5922L721.532 41.8502C721.064 41.5808 720.535 41.4389 719.996 41.4389C719.457 41.4389 718.928 41.5808 718.461 41.8502L682.632 62.5922C682.167 62.8614 681.78 63.2489 681.511 63.7158C681.242 64.1826 681.101 64.7123 681.1 65.2516V106.736C681.1 107.275 681.242 107.805 681.511 108.273C681.78 108.74 682.167 109.128 682.632 109.397L718.461 130.139C718.927 130.411 719.457 130.554 719.996 130.554C720.535 130.554 721.065 130.411 721.532 130.139L757.36 109.397C757.826 109.128 758.212 108.74 758.481 108.273C758.75 107.805 758.892 107.275 758.892 106.736V65.2516C758.892 64.7123 758.75 64.1826 758.481 63.7158C758.212 63.2489 757.826 62.8614 757.36 62.5922ZM757.063 105.775C757.062 106.288 756.927 106.792 756.671 107.236C756.415 107.679 756.047 108.048 755.605 108.304L721.458 128.08C721.014 128.334 720.511 128.467 720 128.467C719.489 128.467 718.986 128.334 718.542 128.08L684.398 108.304C683.954 108.047 683.585 107.678 683.328 107.233C683.072 106.787 682.937 106.282 682.937 105.768V66.227C682.938 65.7129 683.074 65.208 683.33 64.763C683.586 64.318 683.954 63.9483 684.398 63.691L718.554 43.9244C718.997 43.6659 719.5 43.5298 720.012 43.5298C720.524 43.5298 721.027 43.6659 721.47 43.9244L755.617 63.6935C756.058 63.9519 756.423 64.3218 756.677 64.7664C756.93 65.2109 757.063 65.7146 757.063 66.227V105.775ZM719.136 59.2925L713.97 64.4801C713.873 64.5774 713.873 64.7354 713.97 64.8328L726.692 77.6086C726.789 77.706 726.946 77.706 727.043 77.6086L732.209 72.4211C732.306 72.3237 732.306 72.1658 732.209 72.0684L719.487 59.2925C719.39 59.1952 719.233 59.1952 719.136 59.2925ZM714.101 67.9564L701.907 80.2013C701.462 80.6488 701.462 81.3743 701.907 81.8218L709.78 89.7277C710.226 90.1752 710.948 90.1752 711.394 89.7277L723.587 77.4828C724.033 77.0353 724.033 76.3098 723.587 75.8623L715.714 67.9564C715.269 67.5089 714.546 67.5089 714.101 67.9564ZM693.212 85.3307L698.377 80.1432C698.474 80.0458 698.631 80.0458 698.728 80.1432L711.45 92.919C711.547 93.0164 711.547 93.1744 711.45 93.2717L706.285 98.4592C706.188 98.5566 706.031 98.5566 705.934 98.4592L693.212 85.6834C693.115 85.586 693.115 85.4281 693.212 85.3307ZM737.049 107.179L717.015 84.811L718.946 82.7923L740.364 103.717C740.889 104.23 740.567 105.445 739.631 106.412C738.703 107.383 737.54 107.727 737.049 107.179Z" fill="#9013FE"/>
</svg>
