<svg  viewBox="0 0 390 150" fill="none" xmlns="http://www.w3.org/2000/svg">
<g clip-path="url(#clip0_23957_185371)">
<path d="M0 0H390V109.006L194.751 150L0 109.006V0Z" fill="#2A1260"/>
<path d="M11.25 24.8008C11.3408 24.8008 11.4302 24.8249 11.5088 24.8691L17.5537 28.2646C17.6323 28.3087 17.6978 28.3718 17.7432 28.4482C17.7886 28.5248 17.8125 28.6118 17.8125 28.7002V35.4912C17.8125 35.5796 17.7886 35.6667 17.7432 35.7432C17.6977 35.8195 17.6323 35.8827 17.5537 35.9268L11.5088 39.3232C11.4302 39.3675 11.3408 39.3906 11.25 39.3906C11.1592 39.3906 11.0698 39.3674 10.9912 39.3232L4.94629 35.9268C4.86772 35.8827 4.80222 35.8196 4.75684 35.7432C4.71145 35.6667 4.68749 35.5795 4.6875 35.4912V28.7002C4.68748 28.6119 4.71145 28.5247 4.75684 28.4482C4.80222 28.3719 4.8678 28.3086 4.94629 28.2646L10.9912 24.8691C11.0699 24.8249 11.1592 24.8008 11.25 24.8008ZM5.2041 28.7002V35.4912L11.25 38.8867L17.2949 35.4912V28.7002L11.25 25.3037L5.2041 28.7002ZM11.249 26.1855C11.3225 26.1855 11.3952 26.2046 11.459 26.2402L16.3574 28.9912C16.421 29.0269 16.474 29.0787 16.5107 29.1406C16.5474 29.2024 16.5673 29.2723 16.5674 29.3438V34.8457C16.5674 34.9173 16.5475 34.9878 16.5107 35.0498C16.474 35.1117 16.421 35.1635 16.3574 35.1992L11.459 37.9502C11.3953 37.9861 11.3226 38.0049 11.249 38.0049C11.1756 38.0048 11.1036 37.986 11.04 37.9502L6.1416 35.1992C6.07798 35.1635 6.02504 35.1117 5.98828 35.0498C5.95152 34.9878 5.93167 34.9173 5.93164 34.8457V29.3438C5.93175 29.2723 5.95158 29.2024 5.98828 29.1406C6.02505 29.0787 6.07798 29.0269 6.1416 28.9912L11.04 26.2402C11.1037 26.2047 11.1757 26.1856 11.249 26.1855ZM11.252 26.4629C11.182 26.4629 11.1132 26.4814 11.0527 26.5156L6.38281 29.1367C6.32221 29.1708 6.27137 29.2203 6.23633 29.2793C6.20133 29.3383 6.18276 29.4055 6.18262 29.4736V34.7178C6.1826 34.786 6.20128 34.8531 6.23633 34.9121C6.27139 34.9711 6.32213 35.0197 6.38281 35.0537L11.0508 37.6768C11.1115 37.7104 11.1801 37.7285 11.25 37.7285C11.3199 37.7285 11.3885 37.7104 11.4492 37.6768L16.1182 35.0537C16.1785 35.0198 16.2288 34.9709 16.2637 34.9121C16.2986 34.8533 16.3173 34.7867 16.3174 34.7188V29.4736C16.3175 29.4057 16.2993 29.3383 16.2646 29.2793C16.23 29.2204 16.1793 29.1719 16.1191 29.1377L11.4512 26.5156C11.3907 26.4814 11.3219 26.4629 11.252 26.4629Z" fill="#9013FE" fill-opacity="0.6"/>
<path d="M45.1562 51.791C45.2117 51.791 45.2664 51.8055 45.3145 51.832L49.0088 53.8691C49.0567 53.8955 49.0963 53.9337 49.124 53.9795C49.1518 54.0254 49.167 54.0778 49.167 54.1309V58.2051C49.167 58.2581 49.1518 58.3106 49.124 58.3564C49.0963 58.4022 49.0567 58.4404 49.0088 58.4668L45.3145 60.5049C45.2664 60.5314 45.2117 60.5449 45.1562 60.5449C45.1008 60.5449 45.0461 60.5314 44.998 60.5049L41.3037 58.4668C41.2558 58.4404 41.2162 58.4022 41.1885 58.3564C41.1608 58.3107 41.1456 58.2589 41.1455 58.2061V54.1309C41.1455 54.0779 41.1607 54.0254 41.1885 53.9795C41.2162 53.9338 41.2558 53.8955 41.3037 53.8691L44.998 51.832C45.0461 51.8055 45.1007 51.791 45.1562 51.791ZM41.4619 54.1309V58.2061L45.1562 60.2432L48.8506 58.2061V54.1309L45.1562 52.0928L41.4619 54.1309ZM45.1562 52.6221C45.2011 52.6221 45.2452 52.6339 45.2842 52.6553L48.2773 54.3057C48.3161 54.327 48.3486 54.3575 48.3711 54.3945C48.3935 54.4316 48.4052 54.4738 48.4053 54.5166V57.8184C48.4052 57.8613 48.3935 57.9033 48.3711 57.9404C48.3486 57.9776 48.3162 58.0088 48.2773 58.0303L45.2842 59.6807C45.2453 59.7022 45.2012 59.7138 45.1562 59.7139C45.1112 59.7139 45.0663 59.7023 45.0273 59.6807L42.0342 58.0303C41.9953 58.0088 41.9629 57.9776 41.9404 57.9404C41.918 57.9033 41.9063 57.8612 41.9062 57.8184V54.5166C41.9064 54.4738 41.918 54.4316 41.9404 54.3945C41.9629 54.3575 41.9954 54.327 42.0342 54.3057L45.0273 52.6553C45.0664 52.6338 45.1112 52.6221 45.1562 52.6221ZM45.1572 52.7881C45.1144 52.7881 45.0722 52.7997 45.0352 52.8203L42.1816 54.3926C42.1446 54.4131 42.1142 54.4431 42.0928 54.4785C42.0714 54.5139 42.0597 54.5539 42.0596 54.5947V57.7412C42.0596 57.782 42.0706 57.8221 42.0918 57.8574C42.1132 57.8929 42.1445 57.923 42.1816 57.9434L45.0342 59.5166C45.0713 59.5368 45.1135 59.5479 45.1562 59.5479C45.1989 59.5478 45.2412 59.5368 45.2783 59.5166L48.1309 57.9434C48.1677 57.9231 48.1984 57.8935 48.2197 57.8584C48.241 57.8232 48.2528 57.7829 48.2529 57.7422V54.5947C48.253 54.554 48.2419 54.5139 48.2207 54.4785C48.1995 54.4431 48.1687 54.4131 48.1318 54.3926L45.2793 52.8203C45.2423 52.7997 45.2 52.7881 45.1572 52.7881Z" fill="#F2E3FF"/>
<path fill-rule="evenodd" clip-rule="evenodd" d="M14.2169 97.4792C14.3778 97.5721 14.5604 97.6211 14.7463 97.6211C14.9322 97.6211 15.1148 97.5721 15.2758 97.4792L27.6481 90.3442C27.809 90.2517 27.9427 90.1184 28.0357 89.9578C28.1287 89.7971 28.1778 89.6148 28.1779 89.4291V75.1619C28.1779 74.9762 28.1289 74.7937 28.0359 74.6329C27.9429 74.4721 27.8091 74.3387 27.6481 74.2461L15.2758 67.1126C15.1148 67.0196 14.9322 66.9707 14.7463 66.9707C14.5604 66.9707 14.3778 67.0196 14.2169 67.1126L1.84453 74.2468C1.68367 74.3394 1.55006 74.4727 1.45717 74.6334C1.36427 74.794 1.31539 74.9764 1.31543 75.1619V89.4298C1.31541 89.6154 1.36434 89.7977 1.45727 89.9584C1.5502 90.1191 1.68385 90.2524 1.84474 90.3449L14.2169 97.4792ZM14.746 96.5634L2.37363 89.4298V75.1619L14.746 68.027L27.1183 75.1619V89.4298L14.746 96.5634ZM25.2007 75.7735L15.1753 69.994C15.0445 69.9189 14.8964 69.8794 14.7456 69.8794C14.5948 69.8794 14.4467 69.9189 14.3159 69.994L4.29048 75.7735C4.16027 75.8486 4.0521 75.9565 3.97686 76.0866C3.90161 76.2167 3.86194 76.3643 3.86183 76.5146V88.0736C3.86189 88.224 3.90153 88.3717 3.97678 88.5019C4.05202 88.6321 4.16022 88.7402 4.29048 88.8153L14.3159 94.5949C14.4465 94.6706 14.5947 94.7104 14.7456 94.7104C14.8965 94.7104 15.0447 94.6706 15.1753 94.5949L25.2007 88.8153C25.331 88.7402 25.4391 88.6321 25.5144 88.5019C25.5896 88.3717 25.6293 88.224 25.6293 88.0736V76.5146C25.6292 76.3643 25.5896 76.2167 25.5143 76.0866C25.4391 75.9565 25.3309 75.8486 25.2007 75.7735ZM25.1174 87.806C25.1173 87.9489 25.0795 88.0893 25.0079 88.2129C24.9362 88.3366 24.8333 88.4392 24.7094 88.5105L15.1546 94.021C15.0303 94.0917 14.8897 94.1289 14.7466 94.1289C14.6036 94.1289 14.463 94.0917 14.3386 94.021L4.78449 88.5105C4.66023 88.4391 4.55701 88.3362 4.48525 88.2121C4.4135 88.088 4.37574 87.9472 4.3758 87.8039V76.7863C4.37609 76.6431 4.41399 76.5024 4.48571 76.3784C4.55744 76.2544 4.66047 76.1514 4.78449 76.0797L14.342 70.572C14.466 70.4999 14.6067 70.462 14.7501 70.462C14.8934 70.462 15.0342 70.4999 15.1581 70.572L24.7129 76.0804C24.8362 76.1524 24.9384 76.2555 25.0094 76.3794C25.0804 76.5032 25.1176 76.6436 25.1174 76.7863V87.806Z" fill="#560AC6"/>
<path fill-rule="evenodd" clip-rule="evenodd" d="M374.724 97.4792C374.885 97.5721 375.067 97.6211 375.253 97.6211C375.439 97.6211 375.622 97.5721 375.783 97.4792L388.155 90.3442C388.316 90.2517 388.45 90.1184 388.543 89.9578C388.636 89.7971 388.685 89.6148 388.685 89.4291V75.1619C388.685 74.9762 388.636 74.7937 388.543 74.6329C388.45 74.4721 388.316 74.3387 388.155 74.2461L375.783 67.1126C375.622 67.0196 375.439 66.9707 375.253 66.9707C375.067 66.9707 374.885 67.0196 374.724 67.1126L362.351 74.2468C362.191 74.3394 362.057 74.4727 361.964 74.6334C361.871 74.794 361.822 74.9764 361.822 75.1619V89.4298C361.822 89.6154 361.871 89.7977 361.964 89.9584C362.057 90.1191 362.191 90.2524 362.352 90.3449L374.724 97.4792ZM375.253 96.5634L362.88 89.4298V75.1619L375.253 68.027L387.625 75.1619V89.4298L375.253 96.5634ZM385.708 75.7735L375.682 69.994C375.551 69.9189 375.403 69.8794 375.252 69.8794C375.102 69.8794 374.953 69.9189 374.823 69.994L364.797 75.7735C364.667 75.8486 364.559 75.9565 364.484 76.0866C364.408 76.2167 364.369 76.3643 364.369 76.5146V88.0736C364.369 88.224 364.408 88.3717 364.484 88.5019C364.559 88.6321 364.667 88.7402 364.797 88.8153L374.823 94.5949C374.953 94.6706 375.102 94.7104 375.252 94.7104C375.403 94.7104 375.552 94.6706 375.682 94.5949L385.708 88.8153C385.838 88.7402 385.946 88.6321 386.021 88.5019C386.096 88.3717 386.136 88.224 386.136 88.0736V76.5146C386.136 76.3643 386.096 76.2167 386.021 76.0866C385.946 75.9565 385.838 75.8486 385.708 75.7735ZM385.624 87.806C385.624 87.9489 385.586 88.0893 385.515 88.2129C385.443 88.3366 385.34 88.4392 385.216 88.5105L375.661 94.021C375.537 94.0917 375.397 94.1289 375.253 94.1289C375.11 94.1289 374.97 94.0917 374.845 94.021L365.291 88.5105C365.167 88.4391 365.064 88.3362 364.992 88.2121C364.92 88.088 364.883 87.9472 364.883 87.8039V76.7863C364.883 76.6431 364.921 76.5024 364.993 76.3784C365.064 76.2544 365.167 76.1514 365.291 76.0797L374.849 70.572C374.973 70.4999 375.114 70.462 375.257 70.462C375.4 70.462 375.541 70.4999 375.665 70.572L385.22 76.0804C385.343 76.1524 385.445 76.2555 385.516 76.3794C385.587 76.5032 385.624 76.6436 385.624 76.7863V87.806Z" fill="#560AC6"/>
<path d="M379.479 24.8008C379.57 24.8008 379.66 24.825 379.738 24.8691L385.783 28.2646C385.862 28.3087 385.927 28.3718 385.973 28.4482C386.018 28.5248 386.042 28.6118 386.042 28.7002V35.4912C386.042 35.5796 386.018 35.6667 385.973 35.7432C385.927 35.8195 385.862 35.8827 385.783 35.9268L379.738 39.3232C379.66 39.3674 379.57 39.3906 379.479 39.3906C379.389 39.3906 379.299 39.3674 379.221 39.3232L373.176 35.9268C373.097 35.8827 373.032 35.8196 372.986 35.7432C372.941 35.6667 372.917 35.5796 372.917 35.4912V28.7002C372.917 28.6119 372.941 28.5247 372.986 28.4482C373.032 28.3719 373.097 28.3086 373.176 28.2646L379.221 24.8691C379.299 24.8249 379.389 24.8008 379.479 24.8008ZM373.434 28.7002V35.4912L379.479 38.8867L385.524 35.4912V28.7002L379.479 25.3037L373.434 28.7002ZM379.479 26.1855C379.552 26.1855 379.625 26.2046 379.688 26.2402L384.587 28.9912C384.651 29.0269 384.703 29.0787 384.74 29.1406C384.777 29.2024 384.797 29.2724 384.797 29.3438V34.8457C384.797 34.9173 384.777 34.9878 384.74 35.0498C384.703 35.1118 384.651 35.1635 384.587 35.1992L379.688 37.9502C379.625 37.9861 379.552 38.0049 379.479 38.0049C379.405 38.0048 379.332 37.9862 379.269 37.9502L374.37 35.1992C374.307 35.1635 374.254 35.1117 374.217 35.0498C374.18 34.9879 374.161 34.9172 374.161 34.8457V29.3438C374.161 29.2725 374.18 29.2024 374.217 29.1406C374.254 29.0788 374.307 29.0269 374.37 28.9912L379.269 26.2402C379.332 26.2045 379.405 26.1856 379.479 26.1855ZM379.481 26.4629C379.411 26.4629 379.342 26.4813 379.281 26.5156L374.612 29.1367C374.552 29.1708 374.501 29.2203 374.466 29.2793C374.431 29.3383 374.412 29.4055 374.412 29.4736V34.7178C374.412 34.786 374.431 34.8531 374.466 34.9121C374.501 34.9711 374.552 35.0197 374.612 35.0537L379.28 37.6768C379.341 37.7104 379.41 37.7285 379.479 37.7285C379.549 37.7285 379.618 37.7104 379.679 37.6768L384.348 35.0537C384.408 35.0198 384.458 34.9708 384.493 34.9121C384.528 34.8533 384.547 34.7866 384.547 34.7188V29.4736C384.547 29.4057 384.529 29.3383 384.494 29.2793C384.459 29.2204 384.409 29.1719 384.349 29.1377L379.681 26.5156C379.62 26.4814 379.551 26.463 379.481 26.4629Z" fill="#9013FE" fill-opacity="0.6"/>
<path d="M345.573 51.791C345.517 51.791 345.463 51.8055 345.415 51.832L341.72 53.8691C341.672 53.8955 341.633 53.9338 341.605 53.9795C341.577 54.0254 341.562 54.0779 341.562 54.1309V58.2061C341.562 58.2589 341.577 58.3107 341.605 58.3564C341.633 58.4022 341.672 58.4404 341.72 58.4668L345.415 60.5049C345.463 60.5314 345.517 60.5449 345.573 60.5449C345.628 60.5449 345.683 60.5314 345.731 60.5049L349.425 58.4668C349.473 58.4404 349.513 58.4022 349.541 58.3564C349.568 58.3106 349.583 58.2581 349.583 58.2051V54.1309C349.584 54.0778 349.568 54.0254 349.541 53.9795C349.513 53.9337 349.473 53.8955 349.425 53.8691L345.731 51.832C345.683 51.8055 345.628 51.791 345.573 51.791ZM349.267 54.1309V58.2061L345.573 60.2432L341.878 58.2061V54.1309L345.573 52.0928L349.267 54.1309ZM345.573 52.6221C345.528 52.6221 345.483 52.6338 345.444 52.6553L342.451 54.3057C342.412 54.3271 342.379 54.3575 342.357 54.3945C342.335 54.4316 342.323 54.4738 342.323 54.5166V57.8184C342.323 57.8612 342.335 57.9033 342.357 57.9404C342.379 57.9776 342.412 58.0088 342.451 58.0303L345.444 59.6807C345.483 59.7023 345.528 59.7139 345.573 59.7139C345.618 59.7138 345.662 59.7022 345.701 59.6807L348.694 58.0303C348.733 58.0088 348.765 57.9776 348.788 57.9404C348.81 57.9033 348.822 57.8613 348.822 57.8184V54.5166C348.822 54.4738 348.81 54.4316 348.788 54.3945C348.765 54.3575 348.733 54.327 348.694 54.3057L345.701 52.6553C345.662 52.6339 345.618 52.6221 345.573 52.6221ZM345.574 52.7881C345.617 52.7881 345.659 52.7997 345.696 52.8203L348.548 54.3926C348.585 54.4131 348.616 54.4431 348.637 54.4785C348.658 54.5139 348.669 54.554 348.669 54.5947V57.7422C348.669 57.7829 348.658 57.8232 348.636 57.8584C348.615 57.8935 348.584 57.9231 348.547 57.9434L345.695 59.5166C345.658 59.5368 345.615 59.5479 345.573 59.5479C345.53 59.5478 345.488 59.5368 345.451 59.5166L342.598 57.9434C342.561 57.923 342.531 57.8929 342.509 57.8574C342.488 57.822 342.476 57.7821 342.476 57.7412V54.5947C342.476 54.5539 342.488 54.5139 342.509 54.4785C342.531 54.4431 342.561 54.4131 342.598 54.3926L345.452 52.8203C345.489 52.7998 345.531 52.7881 345.574 52.7881Z" fill="#F2E3FF"/>
<path fill-rule="evenodd" clip-rule="evenodd" d="M193.619 102.483C194.039 102.727 194.515 102.855 194.999 102.855C195.483 102.855 195.959 102.727 196.379 102.483L228.619 83.8043C229.039 83.5621 229.387 83.2131 229.63 82.7926C229.872 82.372 230 81.8946 230 81.4086V44.0577C230 43.5713 229.872 43.0936 229.63 42.6726C229.388 42.2517 229.039 41.9024 228.619 41.66L196.379 22.9847C195.959 22.7414 195.483 22.6133 194.999 22.6133C194.515 22.6133 194.039 22.7414 193.619 22.9847L161.379 41.662C160.96 41.9043 160.611 42.2533 160.369 42.6739C160.127 43.0945 160 43.5718 160 44.0577V81.4104C160 81.8963 160.127 82.3737 160.37 82.7943C160.612 83.2149 160.96 83.5639 161.379 83.8061L193.619 102.483ZM194.998 100.086L162.758 81.4104V44.0577L194.998 25.3786L227.239 44.0577V81.4104L194.998 100.086ZM222.242 45.6588L196.117 30.5282C195.776 30.3316 195.39 30.2282 194.997 30.2282C194.604 30.2282 194.218 30.3316 193.878 30.5282L167.753 45.6588C167.413 45.8552 167.131 46.1379 166.935 46.4784C166.739 46.8189 166.636 47.2053 166.636 47.5988V77.86C166.636 78.2537 166.739 78.6404 166.935 78.9812C167.131 79.3221 167.413 79.605 167.753 79.8017L193.878 94.9324C194.218 95.1305 194.604 95.2349 194.997 95.2349C195.39 95.2349 195.777 95.1305 196.117 94.9324L222.242 79.8017C222.581 79.605 222.863 79.3221 223.059 78.9812C223.255 78.6404 223.359 78.2537 223.359 77.86V47.5988C223.359 47.2053 223.255 46.8189 223.059 46.4784C222.863 46.1379 222.581 45.8552 222.242 45.6588ZM222.025 77.1593C222.024 77.5334 221.926 77.9009 221.739 78.2247C221.553 78.5485 221.284 78.8172 220.962 79.0038L196.063 93.4301C195.739 93.6152 195.373 93.7125 195 93.7125C194.627 93.7125 194.261 93.6152 193.937 93.4301L169.04 79.0038C168.716 78.8168 168.447 78.5473 168.26 78.2225C168.073 77.8977 167.975 77.5291 167.975 77.1539V48.3103C167.976 47.9352 168.074 47.567 168.261 47.2423C168.448 46.9177 168.717 46.648 169.04 46.4604L193.946 32.0412C194.269 31.8527 194.635 31.7534 195.009 31.7534C195.382 31.7534 195.749 31.8527 196.072 32.0412L220.971 46.4622C221.292 46.6506 221.558 46.9205 221.743 47.2448C221.928 47.5691 222.025 47.9365 222.025 48.3103V77.1593ZM194.37 43.2518L190.603 47.0359C190.532 47.107 190.532 47.2222 190.603 47.2932L199.88 56.6128C199.95 56.6838 200.065 56.6838 200.136 56.6128L203.902 52.8286C203.973 52.7576 203.973 52.6424 203.902 52.5714L194.626 43.2518C194.555 43.1808 194.441 43.1808 194.37 43.2518ZM190.698 49.5718L181.807 58.5041C181.482 58.8305 181.482 59.3597 181.807 59.6862L187.548 65.4533C187.873 65.7797 188.4 65.7797 188.725 65.4533L197.616 56.521C197.94 56.1946 197.94 55.6654 197.616 55.339L191.875 49.5718C191.55 49.2454 191.023 49.2454 190.698 49.5718ZM175.467 62.2458L179.233 58.4617C179.304 58.3907 179.419 58.3907 179.489 58.4617L188.766 67.7813C188.837 67.8523 188.837 67.9675 188.766 68.0386L184.999 71.8227C184.929 71.8937 184.814 71.8937 184.743 71.8227L175.467 62.5031C175.396 62.4321 175.396 62.3169 175.467 62.2458ZM207.432 78.1835L192.824 61.8667L194.232 60.3941L209.849 75.6584C210.231 76.0319 209.997 76.9186 209.314 77.6239C208.638 78.3324 207.789 78.5835 207.432 78.1835Z" fill="#9013FE"/>
</g>
<defs>
<clipPath id="clip0_23957_185371">
<rect width="390" height="150" fill="white"/>
</clipPath>
</defs>
</svg>
