<svg xmlns="http://www.w3.org/2000/svg" width="123" height="32" viewBox="0 0 123 32" fill="none">
  <g clip-path="url(#clip0_23427_115715)">
    <path fill-rule="evenodd" clip-rule="evenodd" d="M28.3701 0.995692L10.4479 0.193359L0 13.2786L7.38733 30.8188L25.4084 31.9599L35.6504 17.181L28.3701 0.995692ZM10.6164 15.2155L23.6103 9.52393L21.7225 23.8402L10.6164 15.2155ZM11.7232 2.17808L22.1052 6.6616L9.54521 11.6188L11.7232 2.17808ZM8.19665 17.9181L19.4731 26.0103L8.47131 28.8901L8.19665 17.9181ZM26.1564 9.3137L33.8468 17.125L24.1148 24.3735L26.1564 9.3137ZM12.6012 30.2662L22.1126 27.7499L23.7935 30.9886L12.6012 30.2662ZM24.0132 26.9274L32.3444 20.707L25.6712 30.1753L24.0132 26.9274ZM26.7753 6.59367L28.4077 3.25765L32.8003 12.7314L26.7753 6.59367ZM15.7955 1.23162L26.3652 1.66124L24.5195 5.05785L15.7955 1.23162ZM1.51335 12.5928L8.91717 3.20073L6.46724 13.6467L1.51335 12.5928ZM1.18835 14.4187L6.16786 15.4744L6.36561 26.7062L1.18835 14.4187ZM45.0009 15.154H45.5905L49.8532 9.53125L51.0644 10.486L46.951 15.7314L51.7803 21.5984L50.5609 22.622L45.5438 16.4713H45.0009V22.3153H43.4052V9.83878H45.0009V15.154ZM57.8666 9.83919H59.4532V20.8791H65.9488V22.3148H57.8666V9.83919ZM79.5562 9.83919H71.8255V22.3148H79.558V20.8791H73.424V16.4479H78.4887V15.0158H73.4222V11.2823H79.5562V9.83919ZM85.9013 9.83919H90.1127C92.1809 9.83919 93.8169 10.8251 93.8169 13.2358C93.8143 14.0097 93.5702 14.7633 93.1189 15.391C92.6675 16.0188 92.0315 16.4891 91.3001 16.7361L94.3433 21.7851L92.97 22.6214L89.8243 16.9748H87.519V22.3139H85.9462L85.9013 9.83919ZM89.5863 15.5409C91.1592 15.5409 92.158 14.6495 92.158 13.2386C92.1873 12.7464 92.0205 12.2628 91.6943 11.8939C91.3682 11.525 90.9093 11.3011 90.4185 11.2713C90.3021 11.2638 90.1853 11.2677 90.0697 11.2832H87.4989V15.5409H89.5863ZM103.81 22.5267C108.134 22.5267 108.205 17.094 108.205 16.0924C108.205 11.0618 105.854 9.62695 103.81 9.62695C101.766 9.62695 99.4064 11.093 99.4064 16.0924C99.4064 21.0919 101.805 22.5267 103.81 22.5267ZM103.808 21.0203C101.402 21.0203 101.072 17.9055 101.072 16.0924H101.032C101.032 14.2518 101.409 11.1352 103.808 11.1352C106.208 11.1352 106.537 14.3189 106.537 16.0924C106.537 17.866 106.214 21.0203 103.808 21.0203ZM115.439 18.3637C115.754 19.894 116.485 21.0259 118.153 21.0259C119.458 21.0259 120.511 20.3099 120.511 18.92C120.511 17.5142 119.433 17.0775 118.324 16.6278C118.22 16.5857 118.115 16.5434 118.012 16.5002C117.828 16.4196 117.645 16.3426 117.465 16.2666C115.872 15.5946 114.489 15.0109 114.489 12.9044C114.489 10.7985 116.179 9.62435 118.13 9.62435C120.198 9.62435 121.409 10.8178 121.912 12.7777L120.387 13.2275C120.104 12.013 119.459 11.1455 118.107 11.1455C117.086 11.1455 116.085 11.6742 116.085 12.7979C116.085 13.9215 116.8 14.3043 117.753 14.7376L120.387 15.9044C120.921 16.1776 121.366 16.5981 121.67 17.1164C121.973 17.6347 122.123 18.2293 122.101 18.8301C122.101 21.1958 120.453 22.536 118.165 22.536C115.876 22.536 114.405 21.0526 114.028 18.8301L115.439 18.3637Z" fill="white"/>
  </g>
  <defs>
    <clipPath id="clip0_23427_115715">
      <rect width="123" height="32" fill="white"/>
    </clipPath>
  </defs>
</svg>