<svg width="140" height="32" viewBox="0 0 140 32" fill="none" xmlns="http://www.w3.org/2000/svg">
<g clip-path="url(#clip0_23708_77901)">
<path d="M35.1818 10.1755V13.3609H34.04V5.4944H35.3987C35.8999 5.4792 36.4013 5.51748 36.8944 5.60857C37.2307 5.71 37.542 5.88117 37.8078 6.11093C38.0167 6.33347 38.179 6.59564 38.2849 6.88195C38.3908 7.16827 38.4382 7.47291 38.4243 7.77786C38.4388 8.09651 38.3805 8.41427 38.2539 8.70705C38.1273 8.99983 37.9357 9.25993 37.6936 9.46763C37.1292 9.89897 36.4271 10.11 35.7184 10.0613L35.1361 10.1298L35.1818 10.1755ZM35.1818 9.03377H35.627C36.7688 9.03377 37.2711 8.63416 37.2711 7.8007C37.2711 6.96723 36.6432 6.63613 35.5471 6.63613H35.1361V9.07944L35.1818 9.03377ZM42.2377 9.94716L44.6125 13.281H43.1397L40.8562 10.0956H40.6393V13.281H39.4975V5.4944H40.8562C41.6418 5.44194 42.4232 5.64631 43.0826 6.07668C43.3322 6.28563 43.5286 6.5509 43.6557 6.85064C43.7827 7.15037 43.8367 7.476 43.8133 7.8007C43.8168 8.31305 43.6479 8.81169 43.3337 9.21645C43.2072 9.41755 43.0405 9.59032 42.844 9.72392C42.6475 9.85753 42.4255 9.94908 42.192 9.99283L42.2377 9.94716ZM40.8105 9.07944H41.1759C42.3176 9.07944 42.82 8.66842 42.82 7.8007C42.82 6.93298 42.2263 6.63613 41.1645 6.63613H40.7648L40.8105 9.07944ZM45.2747 9.29637C45.2683 8.77984 45.3673 8.26743 45.5656 7.79042C45.7638 7.31342 46.0572 6.88181 46.4278 6.52196C46.8106 6.15108 47.2628 5.85933 47.7584 5.66341C48.2541 5.4675 48.7835 5.37127 49.3164 5.38023C49.8497 5.3757 50.3783 5.48079 50.8693 5.68897C51.3603 5.89716 51.8032 6.204 52.1708 6.59046C52.5543 6.95722 52.8585 7.39873 53.0647 7.8877C53.2709 8.37667 53.3747 8.90273 53.3696 9.43338C53.3736 9.96555 53.2693 10.493 53.0633 10.9836C52.8572 11.4743 52.5535 11.918 52.1708 12.2877C51.788 12.6586 51.3358 12.9503 50.8402 13.1463C50.3445 13.3422 49.8151 13.4384 49.2822 13.4294C48.295 13.4417 47.34 13.0785 46.6105 12.4133C46.1611 12.0407 45.803 11.5702 45.5636 11.0379C45.3241 10.5055 45.2097 9.92545 45.229 9.34204L45.2747 9.29637ZM46.4164 9.36487C46.4058 9.7658 46.4784 10.1646 46.6297 10.536C46.7811 10.9074 47.0078 11.2434 47.2956 11.5227C47.8181 12.0519 48.5272 12.3552 49.2708 12.3676C49.6512 12.3751 50.0291 12.304 50.3808 12.1586C50.7325 12.0132 51.0504 11.7967 51.3145 11.5227C51.5862 11.2498 51.8009 10.9255 51.9459 10.5688C52.091 10.212 52.1635 9.8299 52.1593 9.44479C52.1684 9.05733 52.0981 8.67211 51.9528 8.31281C51.8075 7.95351 51.5903 7.62771 51.3145 7.35542C51.0524 7.07952 50.7346 6.86251 50.3823 6.71882C50.0299 6.57512 49.651 6.50801 49.2708 6.52196C48.8913 6.51434 48.5143 6.58434 48.1628 6.72766C47.8114 6.87099 47.493 7.08461 47.2271 7.35542C46.952 7.62055 46.7357 7.94048 46.5921 8.29449C46.4486 8.64851 46.3809 9.02873 46.3936 9.41054L46.4164 9.36487ZM54.4999 9.29637C54.4858 8.77303 54.5799 8.25241 54.7764 7.76715C54.9728 7.28188 55.2674 6.84241 55.6416 6.47629C56.0244 6.10541 56.4765 5.81366 56.9722 5.61775C57.4679 5.42183 57.9973 5.3256 58.5302 5.33456C59.0635 5.33003 59.592 5.43512 60.083 5.6433C60.574 5.85149 61.017 6.15833 61.3845 6.54479C61.7681 6.91156 62.0723 7.35306 62.2785 7.84203C62.4847 8.331 62.5885 8.85706 62.5834 9.38771C62.5873 9.91988 62.4831 10.4473 62.277 10.938C62.071 11.4286 61.7673 11.8723 61.3845 12.242C60.6423 13.0148 59.6243 13.4623 58.553 13.4865C57.474 13.4805 56.4414 13.0468 55.6816 12.2806C54.9218 11.5144 54.4969 10.4782 54.4999 9.39912V9.29637ZM55.6416 9.36487C55.631 9.7658 55.7036 10.1646 55.8549 10.536C56.0063 10.9074 56.233 11.2434 56.5208 11.5227C57.0433 12.0519 57.7524 12.3552 58.496 12.3676C58.8764 12.3751 59.2543 12.304 59.606 12.1586C59.9577 12.0132 60.2756 11.7967 60.5397 11.5227C61.0801 10.9668 61.3796 10.2201 61.3731 9.44479C61.3836 9.05815 61.3151 8.67343 61.1718 8.31417C61.0285 7.95491 60.8134 7.62867 60.5397 7.35542C60.2854 7.08508 59.9771 6.87118 59.6349 6.7276C59.2927 6.58402 58.9241 6.51396 58.553 6.52196C58.1729 6.51649 57.7955 6.5886 57.4442 6.73386C57.0928 6.87913 56.7747 7.09451 56.5093 7.36684C56.2312 7.62896 56.0105 7.94592 55.8612 8.2977C55.7118 8.64947 55.6371 9.0284 55.6416 9.41054V9.36487ZM67.9609 6.63613H65.255V8.49716H67.881V9.63889H65.255V13.3381H64.1133V5.4944H67.9952V6.63613H67.9609ZM72.1168 9.34204C72.1122 8.81379 72.2174 8.29034 72.4257 7.80489C72.6341 7.31943 72.941 6.88255 73.3271 6.52196C73.7095 6.15056 74.1615 5.85848 74.6573 5.66253C75.153 5.46659 75.6827 5.37064 76.2156 5.38023C76.753 5.36803 77.2871 5.46723 77.7842 5.67159C78.2814 5.87595 78.7308 6.18103 79.1042 6.56763C79.4774 6.93926 79.7711 7.38295 79.9674 7.87169C80.1637 8.36043 80.2585 8.88401 80.246 9.41054C80.2574 9.93864 80.1621 10.4636 79.966 10.9541C79.7698 11.4445 79.4767 11.8903 79.1042 12.2649C78.7215 12.6358 78.2693 12.9275 77.7736 13.1234C77.278 13.3193 76.7485 13.4156 76.2156 13.4066C75.2279 13.4223 74.2716 13.0587 73.544 12.3905C73.09 12.0243 72.7255 11.5594 72.4782 11.0311C72.2309 10.5029 72.1073 9.92522 72.1168 9.34204ZM73.2586 9.41054C73.2432 10.186 73.5342 10.9363 74.0686 11.4985C74.603 12.0607 75.3376 12.3894 76.1129 12.4133C76.4934 12.4208 76.8713 12.3496 77.223 12.2042C77.5746 12.0589 77.8925 11.8424 78.1566 11.5684C78.4268 11.2949 78.6397 10.9703 78.7828 10.6135C78.9259 10.2567 78.9964 9.87486 78.9901 9.49046C79.0006 9.10382 78.9321 8.7191 78.7888 8.35984C78.6455 8.00058 78.4303 7.67434 78.1566 7.40109C77.8945 7.12519 77.5768 6.90818 77.2244 6.76448C76.8721 6.62079 76.4932 6.55368 76.1129 6.56763C75.7318 6.56045 75.3532 6.63061 75 6.77387C74.6467 6.91712 74.3262 7.13049 74.0578 7.40109C73.8008 7.66677 73.6005 7.98188 73.469 8.3273C73.3375 8.67272 73.2776 9.04125 73.2928 9.41054H73.2586ZM85.5664 6.63613H82.8605V8.49716H85.4979V9.63889H82.8605V13.3381H81.7188V5.4944H85.6121V6.63613H85.5664ZM35.1818 21.981H38.5385V18.9554H39.6802V26.7306H38.5385V23.0771H35.1818V26.6964H34.04V18.9098H35.1818V21.981ZM42.7743 18.9554V23.6708C42.7377 24.1799 42.8529 24.6885 43.1054 25.1322C43.2602 25.3447 43.4654 25.5155 43.7026 25.6291C43.9397 25.7427 44.2014 25.7956 44.4641 25.783C44.7298 25.7944 44.9943 25.7411 45.235 25.6277C45.4756 25.5144 45.6851 25.3443 45.8456 25.1322C46.0981 24.6885 46.2133 24.1799 46.1767 23.6708V18.9554H47.3184V23.9905C47.3333 24.3666 47.2733 24.742 47.142 25.0948C47.0107 25.4475 46.8106 25.7707 46.5534 26.0456C46.2823 26.3339 45.9551 26.5637 45.5918 26.7208C45.2285 26.8778 44.837 26.9589 44.4412 26.959C44.0463 26.9643 43.6548 26.8857 43.2926 26.7282C42.9304 26.5707 42.6059 26.338 42.3404 26.0456C42.0832 25.7707 41.8831 25.4475 41.7518 25.0948C41.6205 24.742 41.5606 24.3666 41.5755 23.9905V18.9554H42.7743ZM48.9511 26.7306L50.5609 18.3617L53.2326 24.4357L56.007 18.3617L57.4684 26.7306H56.2696L55.5389 22.0153L53.2554 27.096L51.029 22.0153L50.1841 26.7306H48.9511ZM63.6794 24.8354H60.3227L59.4436 26.6964H58.1649L62.0353 18.4759L65.7688 26.6964H64.4901L63.6794 24.8354ZM63.2456 23.6936L62.1038 21.022L60.8365 23.7621L63.2456 23.6936ZM66.6708 26.6507V18.3161L72.3794 24.2416V18.8755H73.5212V27.1873L67.8125 21.2617V26.7078H66.6708V26.6507ZM76.6038 18.9098V26.7306H75.4621V18.9554L76.6038 18.9098ZM80.5885 20.0515V26.7306H79.4468V20.0515H77.6771V18.9098H82.4267V20.0515H80.5885ZM85.5208 23.3739L82.9633 18.9554H84.3219L86.1145 22.0609L87.8956 18.9554H89.2542L86.6968 23.3739V26.7306H85.5322V23.3739H85.5208Z" fill="url(#paint0_linear_23708_77901)"/>
<path d="M27.9692 17.81C28.0889 17.974 28.191 18.1502 28.2736 18.3357C28.3596 18.4833 28.3953 18.6549 28.3753 18.8245C28.3554 18.9942 28.2808 19.1527 28.1629 19.2764C27.9415 19.4009 27.6786 19.4977 27.4571 19.6222L26.9174 19.8851C26.8279 19.9242 26.7483 19.9829 26.6845 20.057C26.6208 20.131 26.5746 20.2185 26.5494 20.3129C26.5241 20.4072 26.5204 20.5061 26.5386 20.6021C26.5568 20.6981 26.5964 20.7887 26.6545 20.8673C26.7375 20.9918 26.8344 21.0886 26.9174 21.2131C27.005 21.3286 27.0524 21.4694 27.0524 21.6143C27.0524 21.7592 27.005 21.9 26.9174 22.0155C26.7929 22.3337 26.53 22.2922 26.3085 22.3337C26.0871 22.3752 26.3085 22.4582 26.3085 22.555C26.4233 22.5939 26.5252 22.6635 26.6033 22.7561C26.6813 22.8488 26.7325 22.961 26.7514 23.0807C26.7645 23.1983 26.7472 23.3172 26.7011 23.4262C26.6551 23.5352 26.5819 23.6306 26.4884 23.7032C26.2986 23.8382 26.1182 23.9861 25.9487 24.1459C25.8018 24.2847 25.6987 24.4634 25.652 24.66C25.6053 24.8566 25.617 25.0626 25.6858 25.2526C25.8523 25.7004 25.8887 26.1861 25.7907 26.6536C25.6928 27.1212 25.4645 27.5515 25.1322 27.8948C24.9366 28.1051 24.6947 28.267 24.4257 28.3678C24.1567 28.4687 23.868 28.5056 23.5823 28.4759C22.9734 28.4344 22.3922 28.3375 21.7694 28.2545C21.0679 28.112 20.3541 28.0379 19.6382 28.0332C19.1468 28.0226 18.6639 28.1626 18.2544 28.4344C17.9867 28.6169 17.7757 28.871 17.6455 29.1676C17.5242 29.4576 17.4315 29.7588 17.3687 30.0668C17.3303 30.3832 17.2016 30.682 16.9979 30.9273C16.7942 31.1726 16.5242 31.3541 16.2201 31.4501C14.3206 31.8909 12.3694 32.0678 10.4216 31.9758C8.43863 32.0729 6.45215 31.8772 4.52631 31.3948C4.4045 31.3632 4.29097 31.3056 4.19353 31.226C4.09609 31.1464 4.01704 31.0467 3.96182 30.9337C3.90659 30.8206 3.8765 30.697 3.87362 30.5712C3.87073 30.4454 3.89511 30.3205 3.94508 30.2051V30.0253C4.63694 28.036 4.66607 25.8764 4.02811 23.8692C3.55847 22.359 3.00404 20.8764 2.36746 19.4286C1.75855 17.9207 1.09429 16.4266 0.596097 14.8772C0.184595 13.5708 -0.016274 12.2073 0.00102978 10.8378C0.0723339 9.02197 0.673663 7.26672 1.73088 5.78843C3.36831 3.5541 5.63898 1.86255 8.24894 0.932769C9.98741 0.267064 11.8405 -0.047949 13.7014 0.00590379C15.4379 0.00624625 17.1544 0.376569 18.7365 1.09219C20.3186 1.80782 21.73 2.8523 22.8765 4.15604C23.929 5.37105 24.6194 6.85683 24.8693 8.44452C25.1256 9.93832 25.1815 11.4596 25.0354 12.9682C25.0002 13.7265 25.2578 14.4694 25.755 15.0432C26.5023 15.9424 27.2496 16.8693 27.9692 17.81Z" fill="url(#paint1_linear_23708_77901)"/>
</g>
<defs>
<linearGradient id="paint0_linear_23708_77901" x1="34.0058" y1="16.2495" x2="89.2999" y2="16.2495" gradientUnits="userSpaceOnUse">
<stop stop-color="#FF9966"/>
<stop offset="1" stop-color="#FF8CA9"/>
</linearGradient>
<linearGradient id="paint1_linear_23708_77901" x1="0" y1="16" x2="28.3807" y2="16" gradientUnits="userSpaceOnUse">
<stop stop-color="#FF9966"/>
<stop offset="1" stop-color="#FF8CA9"/>
</linearGradient>
<clipPath id="clip0_23708_77901">
<rect width="89.3333" height="32" fill="white"/>
</clipPath>
</defs>
</svg>
