<?xml version="1.0" encoding="UTF-8"?>
<svg id="Layer_1" data-name="Layer 1" xmlns="http://www.w3.org/2000/svg" viewBox="0 0 971.9 971.9">
  <defs>
    <style>
      .cls-1 {
        fill: #9273ff;
      }

      .cls-2 {
        fill: #cfc0ff;
      }

      .cls-3 {
        fill: #6837ee;
      }
    </style>
  </defs>
  <path class="cls-3" d="M489.35,670.69v301.2l-247.73-138.29v-233.33c-.07-159.15-49.74-256.8-112.52-328.96C66.35,199.17,0,143.65,0,143.65l262.62,151.65c74.96,42.96,226.64,171.44,226.73,375.39Z"/>
  <path class="cls-2" d="M262.62,295.3L0,143.65,244.64,0l201.96,117.68c137.79,80.21,247.36,86.67,341.48,68.99,94.09-17.68,183.82-45.36,183.82-45.36l-264.19,148.48c-74.99,42.91-268.51,108.3-445.09,5.51Z"/>
  <path class="cls-1" d="M707.7,289.79l264.19-148.48v283.2l-203.49,115.02c-138.77,78.52-199.44,169.77-231.43,259.83-31.98,90.03-47.62,172.54-47.62,172.54v-301.2c.51-86.24,40.53-280.29,218.35-380.9Z"/>
</svg>